<svg xmlns="http://www.w3.org/2000/svg" xmlns:xlink="http://www.w3.org/1999/xlink" width="793.76" height="1122.56" viewBox="0 0 595.32 841.92"><path stroke-width=".8400000000000001" stroke-linecap="round" stroke-linejoin="round" fill="none" stroke="#000" d="M247.2 170.28h43.92V754.8H247.2V170.28zM291.12 170.28v-43.92h260.52v43.92H291.12z"/><path stroke-width=".8400000000000001" stroke-linecap="round" stroke-linejoin="round" fill="none" stroke="#000" d="M262.56 294.48h28.56v12.72h-28.56v-12.72zM276.36 316.08h7.92v2.52h-7.92v-2.52zM254.76 311.16h7.92v2.4h-7.92v-2.4zM276.36 285.6h7.92v-2.52h-7.92v2.52zM254.76 290.52h7.92v-2.4h-7.92v2.4zM262.56 213.36h28.56v12.72h-28.56v-12.72zM276.36 234.96h7.92v2.52h-7.92v-2.52zM254.76 230.04h7.92v2.4h-7.92v-2.4zM276.36 204.48h7.92v-2.52h-7.92v2.52zM254.76 209.52h7.92V207h-7.92v2.52zM262.56 374.88h28.56v12.84h-28.56v-12.84zM276.36 396.6h7.92v2.52h-7.92v-2.52zM254.76 391.56h7.92v2.52h-7.92v-2.52zM276.36 366h7.92v-2.4h-7.92v2.4zM254.76 371.04h7.92v-2.4h-7.92v2.4zM262.56 454.56h28.56v12.84h-28.56v-12.84zM276.36 476.28h7.92v2.52h-7.92v-2.52zM254.76 471.24h7.92v2.52h-7.92v-2.52zM276.36 445.68h7.92v-2.4h-7.92v2.4zM254.76 450.72h7.92v-2.52h-7.92v2.52zM262.56 535.56h28.56v12.72h-28.56v-12.72zM276.36 557.16h7.92v2.52h-7.92v-2.52zM254.76 552.24h7.92v2.4h-7.92v-2.4zM276.36 526.68h7.92v-2.52h-7.92v2.52zM254.76 531.72h7.92v-2.52h-7.92v2.52zM262.56 615.72h28.56v12.84h-28.56v-12.84zM276.36 637.44h7.92v2.4h-7.92v-2.4zM254.76 632.4h7.92v2.52h-7.92v-2.52zM276.36 606.84h7.92v-2.52h-7.92v2.52zM254.76 611.88h7.92v-2.52h-7.92v2.52zM262.56 697.68h28.56v12.84h-28.56v-12.84zM276.36 719.4h7.92v2.52h-7.92v-2.52zM254.76 714.36h7.92v2.52h-7.92v-2.52zM276.36 688.8h7.92v-2.52h-7.92v2.52zM254.76 693.84h7.92v-2.52h-7.92v2.52zM332.28 154.92v-28.56h12.84v28.56h-12.84zM354 141.12v-7.92h2.52v7.92H354zM348.96 162.72v-7.92h2.52v7.92h-2.52zM323.4 141.12v-7.92h-2.52v7.92h2.52zM328.44 162.72v-7.92h-2.52v7.92h2.52zM412.8 154.92v-28.56h12.84v28.56H412.8zM434.52 141.12v-7.92h2.52v7.92h-2.52zM429.48 162.72v-7.92H432v7.92h-2.52zM403.92 141.12v-7.92h-2.52v7.92h2.52zM408.96 162.72v-7.92h-2.52v7.92h2.52zM493.44 154.92v-28.56h12.84v28.56h-12.84zM515.16 141.12v-7.92h2.52v7.92h-2.52zM510.12 162.72v-7.92h2.52v7.92h-2.52zM484.56 141.12v-7.92h-2.4v7.92h2.4zM489.6 162.72v-7.92h-2.52v7.92h2.52z"/><symbol id="a"><path d="M.161.451H.29C.312.451.322.441.322.42V.032C.322.011.312 0 .29 0 .269 0 .258.01.258.032v.355H.184L.063.022C.058.007.048 0 .033 0 .01 0 0 .01 0 .033l.001.01.128.382C.135.442.146.45.16.45z"/></symbol><symbol id="b"><path d="m.064.24.203.202c.006.006.014.01.023.01C.312.451.322.44.322.418a.03.03 0 0 0-.01-.023L.172.255.316.05A.032.032 0 0 0 .322.03C.322.012.312 0 .29 0a.031.031 0 0 0-.027.014L.125.208l-.06-.06V.032C.064.011.053 0 .031 0 .011 0 0 .01 0 .032V.42C0 .44.01.45.032.45S.064.441.064.42v-.18z"/></symbol><symbol id="c"><path d="M0 .064c0 .022.01.033.032.033S.064.086.064.064V.032C.064.011.054 0 .032 0 .011 0 0 .01 0 .032v.032z"/></symbol><symbol id="d"><path d="M.129.535.055.46A.03.03 0 0 0 .032.451C.011.451 0 .461 0 .483a.03.03 0 0 0 .01.023l.125.126C.144.64.152.645.161.645.183.645.193.634.193.612v-.58C.193.011.183 0 .161 0 .14 0 .13.01.13.032v.503z"/></symbol><symbol id="e"><path d="M.258.322A.641.641 0 0 1 .24.473C.223.544.197.58.16.58.126.58.1.544.082.473a.634.634 0 0 1 0-.302C.099.101.125.064.162.064.196.064.222.1.24.171a.645.645 0 0 1 .017.151m.064 0A.625.625 0 0 0 .294.123C.266.041.222 0 .16 0 .101 0 .056.04.028.123a.627.627 0 0 0-.028.2c0 .076.01.143.028.199C.056.604.1.645.161.645.222.645.266.604.294.52A.625.625 0 0 0 .322.322z"/></symbol><use xlink:href="#a" transform="matrix(5.64 0 0 -5.64 495.484 168.48)"/><use xlink:href="#b" transform="matrix(5.64 0 0 -5.64 498.134 168.48)"/><use xlink:href="#c" transform="matrix(5.64 0 0 -5.64 500.616 168.48)"/><use xlink:href="#d" transform="matrix(5.64 0 0 -5.64 501.744 168.48)"/><use xlink:href="#e" transform="matrix(5.64 0 0 -5.64 503.562 168.48)"/><symbol id="f"><path d="M.258.322v.161c0 .027-.01.05-.029.069A.093.093 0 0 1 .161.58.093.093 0 0 1 .093.552.093.093 0 0 1 .064.483V.42A.095.095 0 0 1 .161.322h.097M.097 0a.03.03 0 0 0-.023.01.03.03 0 0 0-.01.022c0 .015.006.024.017.028a.26.26 0 0 1 .058.027c.07.045.108.102.116.17H.161a.157.157 0 0 0-.114.048A.157.157 0 0 0 0 .419v.064c0 .045.016.083.047.114.031.032.07.048.114.048A.155.155 0 0 0 .275.598.153.153 0 0 0 .322.484V.29C.322.18.272.094.17.03.137.01.112 0 .097 0z"/></symbol><use xlink:href="#a" transform="matrix(5.64 0 0 -5.64 415.684 168.48)"/><use xlink:href="#b" transform="matrix(5.64 0 0 -5.64 418.334 168.48)"/><use xlink:href="#c" transform="matrix(5.64 0 0 -5.64 420.816 168.48)"/><use xlink:href="#f" transform="matrix(5.64 0 0 -5.64 421.944 168.48)"/><symbol id="g"><path d="M.161.064c.027 0 .05.01.068.028a.094.094 0 0 1 .029.07v.064c0 .026-.01.05-.029.068a.093.093 0 0 1-.068.028.094.094 0 0 1-.069-.028.093.093 0 0 1-.028-.068V.16A.095.095 0 0 1 .161.064m0-.064a.157.157 0 0 0-.114.047A.157.157 0 0 0 0 .16v.065c0 .053.021.096.064.128A.154.154 0 0 0 0 .484c0 .044.016.082.047.113.031.032.07.048.114.048A.154.154 0 0 0 .275.597.154.154 0 0 0 .322.483.154.154 0 0 0 .258.354.15.15 0 0 0 .316.268.606.606 0 0 0 .322.161.156.156 0 0 0 .275.047.155.155 0 0 0 .16 0m0 .387c.027 0 .05.009.068.028a.094.094 0 0 1 .029.068c0 .027-.01.05-.029.069A.093.093 0 0 1 .161.58.094.094 0 0 1 .092.552.093.093 0 0 1 .064.483.095.095 0 0 1 .161.387z"/></symbol><use xlink:href="#a" transform="matrix(5.64 0 0 -5.64 335.163 168.48)"/><use xlink:href="#b" transform="matrix(5.64 0 0 -5.64 337.814 168.48)"/><use xlink:href="#c" transform="matrix(5.64 0 0 -5.64 340.296 168.48)"/><use xlink:href="#g" transform="matrix(5.64 0 0 -5.64 341.424 168.48)"/><symbol id="h"><path d="M.185.29H.161C.14.29.13.3.13.322s.01.032.032.032H.2L.25.58H.033C.011.58 0 .59 0 .612s.01.033.032.033H.29c.021 0 .032-.01.032-.032V.605L.265.355H.29C.312.354.322.343.322.321.322.301.312.29.29.29H.251L.192.025C.188.008.178 0 .162 0 .14 0 .129.01.129.032a.04.04 0 0 0 0 .008l.056.25z"/></symbol><use xlink:href="#a" transform="matrix(0 -5.63995 -5.63995 0 300.118 223.675)"/><use xlink:href="#b" transform="matrix(0 -5.63995 -5.63995 0 300.118 221.024)"/><use xlink:href="#c" transform="matrix(0 -5.63995 -5.63995 0 300.118 218.486)"/><use xlink:href="#h" transform="matrix(0 -5.63995 -5.63995 0 300.118 217.415)"/><symbol id="i"><path d="M.064.322v-.16A.095.095 0 0 1 .161.063c.027 0 .05.01.068.029A.093.093 0 0 1 .258.16v.065c0 .027-.01.05-.029.068a.093.093 0 0 1-.068.028H.064m.162.323C.247.645.258.634.258.612.258.596.252.587.242.584A.231.231 0 0 1 .116.5a.221.221 0 0 1-.05-.112h.095A.155.155 0 0 0 .276.34.156.156 0 0 0 .322.226V.16A.155.155 0 0 0 .275.047.155.155 0 0 0 .16 0a.156.156 0 0 0-.114.046A.155.155 0 0 0 0 .16v.194c0 .073.024.137.073.192a.33.33 0 0 0 .123.091.09.09 0 0 0 .03.008z"/></symbol><use xlink:href="#a" transform="matrix(0 -5.63995 -5.63995 0 300.118 304.794)"/><use xlink:href="#b" transform="scale(5.63995) rotate(-90 53.392 .18)"/><use xlink:href="#c" transform="matrix(0 -5.63995 -5.63995 0 300.118 299.605)"/><use xlink:href="#i" transform="matrix(0 -5.63995 -5.63995 0 300.118 298.534)"/><symbol id="j"><path d="M0 .354v.258c0 .022.01.033.032.033h.226C.279.645.29.634.29.612.29.591.28.58.258.58H.064V.387h.097A.154.154 0 0 0 .275.339.155.155 0 0 0 .322.226V.16A.156.156 0 0 0 .275.047.156.156 0 0 0 .16 0H.032C.011 0 0 .01 0 .032s.01.032.032.032h.13c.026 0 .049.01.067.028a.094.094 0 0 1 .029.07v.064c0 .026-.01.05-.029.068a.093.093 0 0 1-.068.028H.032C.011.322 0 .333 0 .354z"/></symbol><use xlink:href="#a" transform="matrix(0 -5.63995 -5.63995 0 300.118 385.193)"/><use xlink:href="#b" transform="matrix(0 -5.63995 -5.63995 0 300.118 382.543)"/><use xlink:href="#c" transform="matrix(0 -5.63995 -5.63995 0 300.118 380.005)"/><use xlink:href="#j" transform="scale(5.63995) rotate(-90 60.2 6.987)"/><symbol id="k"><path d="M0 .161.001.17.13.62C.134.637.145.645.16.645.183.645.193.634.193.612L.192.603.075.193h.15V.29c0 .022.011.032.033.032C.279.322.29.312.29.29V.193h.064c.022 0 .033-.01.033-.032C.387.14.376.13.354.13H.29V.032C.29.011.28 0 .258 0S.226.01.226.032V.13H.032C.011.129 0 .139 0 .16z"/></symbol><use xlink:href="#a" transform="matrix(0 -5.63995 -5.63995 0 300.118 465.111)"/><use xlink:href="#b" transform="matrix(0 -5.63995 -5.63995 0 300.118 462.46)"/><use xlink:href="#c" transform="matrix(0 -5.63995 -5.63995 0 300.118 459.979)"/><use xlink:href="#k" transform="matrix(0 -5.63995 -5.63995 0 300.118 458.85)"/><symbol id="l"><path d="M.161.322H.097C.075.322.064.333.064.354c0 .022.011.033.033.033H.16c.027 0 .05.009.068.028a.094.094 0 0 1 .029.068c0 .027-.01.05-.029.069A.093.093 0 0 1 .161.58H.032C.011.58 0 .59 0 .612s.01.033.032.033h.13A.154.154 0 0 0 .274.597.155.155 0 0 0 .322.483.154.154 0 0 0 .258.354.154.154 0 0 0 .322.226V.16A.156.156 0 0 0 .275.047.156.156 0 0 0 .16 0H.032C.011 0 0 .01 0 .032s.01.032.032.032h.13c.026 0 .049.01.067.028a.094.094 0 0 1 .029.07v.064c0 .026-.01.05-.029.068a.093.093 0 0 1-.068.028z"/></symbol><use xlink:href="#a" transform="scale(5.63995) rotate(-90 75 21.787)"/><use xlink:href="#b" transform="matrix(0 -5.63995 -5.63995 0 300.118 543.221)"/><use xlink:href="#c" transform="matrix(0 -5.63995 -5.63995 0 300.118 540.683)"/><use xlink:href="#l" transform="matrix(0 -5.63995 -5.63995 0 300.118 539.612)"/><symbol id="m"><path d="M.161.645A.154.154 0 0 0 .275.597.154.154 0 0 0 .322.483c0-.03-.01-.061-.029-.092L.09.064h.2c.022 0 .032-.01.032-.032C.322.011.312 0 .29 0H.032C.011 0 0 .01 0 .032 0 .04.002.045.005.051l.237.38a.1.1 0 0 1 .016.052c0 .027-.01.05-.029.069A.093.093 0 0 1 .161.58C.125.58.091.553.061.5A.03.03 0 0 0 .031.483C.011.483 0 .494 0 .516 0 .52.001.525.003.529c.04.077.093.116.158.116z"/></symbol><use xlink:href="#a" transform="matrix(0 -5.63995 -5.63995 0 300.118 626.03)"/><use xlink:href="#b" transform="matrix(0 -5.63995 -5.63995 0 300.118 623.38)"/><use xlink:href="#c" transform="matrix(0 -5.63995 -5.63995 0 300.118 620.842)"/><use xlink:href="#m" transform="matrix(0 -5.63995 -5.63995 0 300.118 619.77)"/><use xlink:href="#a" transform="matrix(0 -5.63995 -5.63995 0 300.118 707.628)"/><use xlink:href="#b" transform="matrix(0 -5.63995 -5.63995 0 300.118 704.977)"/><use xlink:href="#c" transform="matrix(0 -5.63995 -5.63995 0 300.118 702.496)"/><use xlink:href="#d" transform="matrix(0 -5.63995 -5.63995 0 300.118 701.368)"/><path stroke-width=".375" stroke-linecap="round" stroke-linejoin="round" fill="none" stroke="#000" d="M247.2 712.68h-14.16v6.6h14.16v-6.6zM247.2 691.32h-14.16v6.48h14.16v-6.48zM247.2 662.28h-14.16v6.48h14.16v-6.48zM247.2 605.28h-14.16v6.6h14.16v-6.6zM247.2 614.16h-14.16v6.48h14.16v-6.48zM247.2 573.6h-14.16v6.48h14.16v-6.48zM247.2 559.8h-14.16v6.6h14.16v-6.6zM247.2 546h-14.16v6.48h14.16V546zM247.2 531.84h-14.16v6.48h14.16v-6.48zM247.2 506.76h-14.16v6.48h14.16v-6.48zM247.2 498.24h-14.16v6.48h14.16v-6.48zM247.2 483.6h-14.16v6.48h14.16v-6.48zM247.2 392.52h-14.16V399h14.16v-6.48zM247.2 417.96h-14.16v6.48h14.16v-6.48zM247.2 313.44h-14.16v6.48h14.16v-6.48zM247.2 301.92h-14.16v6.48h14.16v-6.48zM247.2 233.76h-14.16v6.48h14.16v-6.48zM247.2 203.16h-14.16v6.48h14.16v-6.48zM247.2 177.36h-14.16v6.48h14.16v-6.48zM291.12 163.8h-58.08v6.6h58.08v-6.6zM297.6 126.36V112.2h-6.48v14.16h6.48zM319.08 126.36V112.2h-6.48v14.16h6.48zM354.96 126.36V112.2h-6.48v14.16h6.48zM412.8 126.36V112.2h-6.48v14.16h6.48zM493.44 126.36V112.2h-6.48v14.16h6.48zM551.64 126.36V112.2h-6.6v14.16h6.6zM247.2 372.6h-14.16v6.48h14.16v-6.48zM247.2 432.6h-14.16v6.48h14.16v-6.48zM247.2 580.08h-14.16v6.6h14.16v-6.6zM544.8 184.32v-14.04h-6.48v14.04h6.48zM247.2 748.32h-14.16v6.48h14.16v-6.48zM278.88 754.8h-14.16v6.48h14.16v-6.48z"/><symbol id="n"><path d="M.419.645C.44.645.45.634.45.612v-.58C.451.011.441 0 .42 0S.387.01.387.032v.474L.255.31C.247.297.237.29.225.29c-.01 0-.02.007-.03.02l-.13.196V.032C.064.011.053 0 .031 0 .011 0 0 .01 0 .032v.58c0 .022.01.033.032.033A.033.033 0 0 0 .061.628L.226.381l.166.25a.03.03 0 0 0 .027.014z"/></symbol><symbol id="o"><path d="M.322.419V.032C.322.011.312 0 .29 0H.129a.126.126 0 0 0-.092.037A.126.126 0 0 0 0 .13v.29C0 .44.01.45.032.45S.064.441.064.42v-.29c0-.018.007-.033.02-.046A.062.062 0 0 1 .128.064h.129V.42C.258.44.268.45.29.45S.322.441.322.42z"/></symbol><symbol id="p"><path d="M.064.193v-.16C.064.01.054 0 .032 0 .011 0 0 .01 0 .032V.42C0 .44.01.45.032.45S.064.441.064.42V.258h.194v.16c0 .022.01.033.032.033S.322.441.322.42V.032C.322.011.312 0 .29 0 .269 0 .258.01.258.032v.161H.064z"/></symbol><use xlink:href="#n" transform="matrix(8.15997 0 0 -8.15997 511.127 195.84)"/><use xlink:href="#o" transform="matrix(8.15997 0 0 -8.15997 515.941 195.84)"/><use xlink:href="#p" transform="matrix(8.15997 0 0 -8.15997 519.531 195.84)"/><use xlink:href="#o" transform="matrix(8.15997 0 0 -8.15997 523.122 195.84)"/><symbol id="q"><path d="M.258.387h-.13a.063.063 0 0 1-.045-.02.062.062 0 0 1-.019-.045V.13c0-.018.007-.033.02-.046A.062.062 0 0 1 .128.064h.064c.018 0 .033.007.046.019a.063.063 0 0 1 .019.046v.258M.387.032C.387.011.376 0 .354 0a.092.092 0 0 0-.073.034A.121.121 0 0 0 .193 0H.13a.126.126 0 0 0-.092.037A.126.126 0 0 0 0 .13v.193C0 .358.012.39.037.414A.125.125 0 0 0 .13.45H.29C.312.451.322.441.322.42V.097c0-.022.011-.033.032-.033.022 0 .033-.01.033-.032z"/></symbol><symbol id="r"><path d="M0 .612c0 .022.01.033.032.033h.161A.123.123 0 0 0 .285.607.123.123 0 0 0 .322.516V.322A.124.124 0 0 0 .285.231.123.123 0 0 0 .193.193H.064v-.16C.064.01.054 0 .032 0 .011 0 0 .01 0 .032v.58M.064.58V.258h.13c.017 0 .032.006.045.018a.063.063 0 0 1 .019.046v.194a.062.062 0 0 1-.019.046.062.062 0 0 1-.046.018H.064z"/></symbol><symbol id="s"><path d="M.161.387A.093.093 0 0 1 .093.358.093.093 0 0 1 .064.29V.258h.194V.29c0 .027-.01.05-.029.068a.093.093 0 0 1-.068.029M.064.193V.13c0-.018.007-.033.02-.046A.062.062 0 0 1 .128.064H.29c.022 0 .032-.01.032-.032C.322.011.312 0 .29 0H.129a.126.126 0 0 0-.092.037A.126.126 0 0 0 0 .13V.29c0 .045.016.083.047.114S.117.45.16.45A.154.154 0 0 0 .275.404.154.154 0 0 0 .322.29V.193H.064z"/></symbol><symbol id="t"><path d="M.032.451h.29A.124.124 0 0 0 .414.414.124.124 0 0 0 .45.322v-.29C.451.011.441 0 .42 0S.387.01.387.032v.29a.062.062 0 0 1-.019.046.062.062 0 0 1-.046.019H.258V.032C.258.011.248 0 .226 0S.193.01.193.032v.355H.064V.032C.064.011.054 0 .032 0 .011 0 0 .01 0 .032V.42C0 .44.01.45.032.45z"/></symbol><symbol id="u"><path d="M0 0z"/></symbol><use xlink:href="#n" transform="matrix(8.15997 0 0 -8.15997 491.324 204.6)"/><use xlink:href="#q" transform="matrix(8.15997 0 0 -8.15997 496.139 204.6)"/><use xlink:href="#r" transform="matrix(8.15997 0 0 -8.15997 500.219 206.179)"/><use xlink:href="#b" transform="matrix(8.15997 0 0 -8.15997 503.89 204.6)"/><use xlink:href="#s" transform="matrix(8.15997 0 0 -8.15997 507.563 204.6)"/><use xlink:href="#t" transform="matrix(8.15997 0 0 -8.15997 511.235 204.6)"/><use xlink:href="#u" transform="matrix(8.15997 0 0 -8.15997 515.36 204.6)"/><use xlink:href="#m" transform="matrix(8.15997 0 0 -8.15997 519.15 204.6)"/><use xlink:href="#k" transform="matrix(8.15997 0 0 -8.15997 522.74 204.6)"/><path d="m536.16 186 2.16-1.68-1.56 2.28z" fill-rule="evenodd"/><path stroke-width=".72" stroke-linecap="round" stroke-linejoin="round" fill="none" stroke="#000" d="m536.52 186.24-10.68 11.16h-34.56"/><symbol id="v"><path d="M.226.51.13.226h.19L.225.51M.45.032C.451.011.441 0 .42 0 .403 0 .393.007.389.022l-.047.14H.109L.063.021C.058.007.048 0 .033 0 .01 0 0 .01 0 .032l.001.01.192.577C.2.636.21.645.226.645.24.645.252.636.257.62L.45.042A.032.032 0 0 0 .45.032z"/></symbol><symbol id="w"><path d="M0 .032V.42C0 .44.01.45.032.45h.161A.124.124 0 0 0 .285.414.124.124 0 0 0 .322.322v-.29C.322.011.312 0 .29 0 .269 0 .258.01.258.032v.29a.062.062 0 0 1-.019.046.062.062 0 0 1-.046.019H.064V.032C.064.011.054 0 .032 0 .011 0 0 .01 0 .032z"/></symbol><use xlink:href="#v" transform="matrix(8.15997 0 0 -8.15997 510.046 90.48)"/><use xlink:href="#w" transform="matrix(8.15997 0 0 -8.15997 514.86 90.48)"/><use xlink:href="#t" transform="matrix(8.15997 0 0 -8.15997 518.45 90.48)"/><use xlink:href="#s" transform="matrix(8.15997 0 0 -8.15997 523.265 90.48)"/><use xlink:href="#b" transform="matrix(8.15997 0 0 -8.15997 526.855 90.48)"/><use xlink:href="#q" transform="matrix(8.15997 0 0 -8.15997 530.446 90.48)"/><symbol id="x"><path d="M.29.645C.312.645.322.634.322.612.322.591.312.58.29.58H.161A.09.09 0 0 1 .078.532.095.095 0 0 1 .064.483V.161c0-.027.01-.05.029-.068A.093.093 0 0 1 .16.064H.29c.022 0 .032-.01.032-.032C.322.011.312 0 .29 0H.161a.157.157 0 0 0-.114.047A.157.157 0 0 0 0 .16v.322c0 .045.016.083.047.114.031.032.07.048.114.048H.29z"/></symbol><symbol id="y"><path d="M0 .161V.29c0 .045.016.083.047.114S.117.45.16.45A.154.154 0 0 0 .275.404.154.154 0 0 0 .322.29V.161A.156.156 0 0 0 .275.047.155.155 0 0 0 .16 0a.157.157 0 0 0-.114.047A.157.157 0 0 0 0 .16m.258 0V.29c0 .027-.01.05-.029.068a.093.093 0 0 1-.068.029.093.093 0 0 1-.068-.029A.093.093 0 0 1 .064.29V.161A.095.095 0 0 1 .161.064c.027 0 .05.01.068.029A.093.093 0 0 1 .258.16z"/></symbol><symbol id="z"><path d="M.322.419V.032C.322.011.312 0 .29 0 .269 0 .258.01.258.032v.161h-.13a.126.126 0 0 0-.09.037A.121.121 0 0 0 0 .32v.099C0 .44.01.45.032.45S.064.441.064.42V.322c0-.017.007-.032.02-.045a.062.062 0 0 1 .045-.02h.129V.42C.258.44.268.45.29.45S.322.441.322.42z"/></symbol><use xlink:href="#x" transform="matrix(8.15997 0 0 -8.15997 504.284 99.238)"/><use xlink:href="#t" transform="matrix(8.15997 0 0 -8.15997 508.037 99.238)"/><use xlink:href="#y" transform="matrix(8.15997 0 0 -8.15997 512.688 99.238)"/><use xlink:href="#a" transform="matrix(8.15997 0 0 -8.15997 516.442 99.238)"/><use xlink:href="#o" transform="matrix(8.15997 0 0 -8.15997 520.032 99.238)"/><use xlink:href="#z" transform="matrix(8.15997 0 0 -8.15997 523.704 99.238)"/><use xlink:href="#b" transform="matrix(8.15997 0 0 -8.15997 527.295 99.238)"/><use xlink:href="#o" transform="matrix(8.15997 0 0 -8.15997 530.885 99.238)"/><path d="m547.2 109.8 1.08 2.4-1.8-1.8z" fill-rule="evenodd"/><path stroke-width=".72" stroke-linecap="round" stroke-linejoin="round" fill="none" stroke="#000" d="m546.84 110.04-13.2-18.48h-29.28"/><symbol id="A"><path d="M.148.337.064.245V.032C.064.011.054 0 .032 0 .011 0 0 .01 0 .032v.58c0 .022.01.033.032.033S.064.634.064.612v-.27L.33.633c.007.007.015.01.024.01.022 0 .033-.01.033-.032A.032.032 0 0 0 .377.59L.195.388l.188-.34A.032.032 0 0 0 .387.032.031.031 0 0 0 .377.01.03.03 0 0 0 .353 0a.03.03 0 0 0-.028.017l-.178.32z"/></symbol><symbol id="B"><path d="M.387.161C.41.161.424.161.429.16.444.155.45.145.45.13V.032C.451.011.441 0 .42 0S.387.01.387.032v.065H.064V.032C.064.011.054 0 .032 0 .011 0 0 .01 0 .032V.13c0 .016.007.026.022.03a.247.247 0 0 0 .042.002l.069.55C.135.73.145.74.16.74h.193C.376.741.387.731.387.71V.161m-.065 0v.516H.193L.13.16h.193z"/></symbol><symbol id="C"><path d="M.192.645h.162C.376.645.387.634.387.612v-.58C.387.011.376 0 .354 0 .333 0 .322.01.322.032V.58H.218L.063.022C.059.007.049 0 .033 0 .01 0 0 .01 0 .032l.002.012.158.568c.006.022.017.033.032.033z"/></symbol><use xlink:href="#A" transform="matrix(8.15997 0 0 -8.15997 460.002 62.04)"/><use xlink:href="#B" transform="matrix(8.15997 0 0 -8.15997 464.245 62.83)"/><use xlink:href="#C" transform="matrix(8.15997 0 0 -8.15997 468.978 62.04)"/><symbol id="D"><path d="M.193.161.064.326V.032C.064.011.054 0 .032 0 .011 0 0 .01 0 .032V.42C0 .44.01.45.032.45c.011 0 .022-.007.032-.02l.13-.165.128.165c.011.013.022.02.032.02.022 0 .033-.01.033-.032V.032C.387.011.376 0 .354 0 .333 0 .322.01.322.032v.294L.193.161z"/></symbol><symbol id="E"><path d="M.322.516V.129A.125.125 0 0 0 .285.037.125.125 0 0 0 .193 0H.13a.125.125 0 0 0-.092.038.125.125 0 0 0-.037.09v.194C0 .358.013.39.038.414a.124.124 0 0 0 .09.037h.13v.065a.062.062 0 0 1-.019.046.062.062 0 0 1-.046.018H.097C.075.58.064.59.064.612s.011.033.033.033h.096A.123.123 0 0 0 .285.607.124.124 0 0 0 .322.516M.258.129v.258h-.13a.063.063 0 0 1-.045-.02.062.062 0 0 1-.019-.045V.13c0-.018.007-.033.02-.046A.062.062 0 0 1 .128.064h.064c.018 0 .033.007.046.019a.063.063 0 0 1 .019.046z"/></symbol><symbol id="F"><path d="M.354.161C.376.161.387.151.387.13V.032C.387.011.376 0 .354 0 .333 0 .322.01.322.032v.065H.13a.125.125 0 0 0-.092.037A.125.125 0 0 0 0 .226v.29c0 .021.01.032.032.032S.064.538.064.516v-.29c0-.018.007-.033.02-.046A.062.062 0 0 1 .128.161h.129v.355c0 .021.01.032.032.032S.322.538.322.516V.16h.032z"/></symbol><symbol id="G"><path d="M.064.322V.13c0-.018.007-.033.02-.046A.062.062 0 0 1 .128.064h.097c.021 0 .032-.01.032-.032C.258.011.248 0 .226 0H.129a.126.126 0 0 0-.092.037A.126.126 0 0 0 0 .13v.193C0 .358.012.39.037.414A.125.125 0 0 0 .13.45h.097C.247.451.258.441.258.42S.248.387.226.387H.129a.063.063 0 0 1-.046-.02.062.062 0 0 1-.019-.045z"/></symbol><symbol id="H"><path d="M.226.129c0 .02-.006.036-.018.047A.059.059 0 0 1 .17.193H.13a.036.036 0 0 0-.023.01.031.031 0 0 0-.01.023c0 .009.004.016.01.023.006.006.017.01.032.01h.01l.01-.001c.022 0 .039.006.05.018a.064.064 0 0 1 .018.046.062.062 0 0 1-.019.046.062.062 0 0 1-.046.019H.13A.179.179 0 0 1 .062.37.818.818 0 0 1 .025.354C.018.354.012.358.007.366A.043.043 0 0 0 0 .388C0 .405.018.42.053.434c.029.011.054.017.076.017H.16A.123.123 0 0 0 .252.414.123.123 0 0 0 .29.322C.29.276.275.244.246.226.276.206.29.174.29.129A.125.125 0 0 0 .252.037.124.124 0 0 0 .162 0H.128a.216.216 0 0 0-.077.017C.017.03 0 .045 0 .063 0 .07.002.078.007.085c.005.008.011.012.018.012A.614.614 0 0 0 .064.081.173.173 0 0 1 .129.064H.16c.018 0 .033.007.046.019a.063.063 0 0 1 .019.046z"/></symbol><symbol id="I"><path d="M.258.129A.125.125 0 0 0 .22.037.124.124 0 0 0 .13 0H.032C.011 0 0 .01 0 .032V.42C0 .44.01.45.032.45S.064.441.064.42V.258H.13A.123.123 0 0 0 .22.22.123.123 0 0 0 .258.13m-.065 0a.062.062 0 0 1-.018.046.062.062 0 0 1-.046.018H.064V.064H.13c.018 0 .033.007.045.019a.063.063 0 0 1 .02.046m.128.29C.322.44.333.45.354.45.376.451.387.441.387.42V.032C.387.011.376 0 .354 0 .333 0 .322.01.322.032V.42z"/></symbol><use xlink:href="#D" transform="matrix(8.15997 0 0 -8.15997 402.164 70.798)"/><use xlink:href="#s" transform="matrix(8.15997 0 0 -8.15997 406.326 70.798)"/><use xlink:href="#E" transform="matrix(8.15997 0 0 -8.15997 410.08 70.798)"/><use xlink:href="#o" transform="matrix(8.15997 0 0 -8.15997 413.833 70.798)"/><use xlink:href="#F" transform="matrix(8.15997 0 0 -8.15997 417.505 71.587)"/><use xlink:href="#o" transform="matrix(8.15997 0 0 -8.15997 421.748 70.798)"/><use xlink:href="#p" transform="matrix(8.15997 0 0 -8.15997 425.42 70.798)"/><use xlink:href="#G" transform="matrix(8.15997 0 0 -8.15997 429.174 70.798)"/><use xlink:href="#b" transform="matrix(8.15997 0 0 -8.15997 432.438 70.798)"/><use xlink:href="#o" transform="matrix(8.15997 0 0 -8.15997 436.11 70.798)"/><use xlink:href="#s" transform="matrix(8.15997 0 0 -8.15997 439.863 70.798)"/><use xlink:href="#u" transform="matrix(8.15997 0 0 -8.15997 442.928 70.798)"/><use xlink:href="#q" transform="matrix(8.15997 0 0 -8.15997 446.555 70.798)"/><use xlink:href="#p" transform="matrix(8.15997 0 0 -8.15997 450.634 70.798)"/><use xlink:href="#q" transform="matrix(8.15997 0 0 -8.15997 454.225 70.798)"/><use xlink:href="#a" transform="matrix(8.15997 0 0 -8.15997 458.305 70.798)"/><use xlink:href="#o" transform="matrix(8.15997 0 0 -8.15997 461.895 70.798)"/><use xlink:href="#H" transform="matrix(8.15997 0 0 -8.15997 465.486 70.798)"/><use xlink:href="#I" transform="matrix(8.15997 0 0 -8.15997 468.913 70.798)"/><path d="m489.72 109.56.48 2.64-1.32-2.28z" fill-rule="evenodd"/><path stroke-width=".72" stroke-linecap="round" stroke-linejoin="round" fill="none" stroke="#000" d="m489.36 109.8-17.28-46.68h-69.84"/><symbol id="J"><path d="M.29.193h.032c.036 0 .067.013.092.038A.124.124 0 0 1 .45.322v.032a.123.123 0 0 1-.037.092.124.124 0 0 1-.092.037H.29v-.29m-.064 0v.29H.193A.125.125 0 0 1 .102.446.125.125 0 0 1 .064.354V.322C.064.286.077.256.102.23A.125.125 0 0 1 .193.193h.033M.29.13V.032C.29.011.28 0 .258 0S.226.01.226.032V.13H.193c-.053 0-.1.019-.137.057A.188.188 0 0 0 0 .322v.032c0 .054.019.1.057.137a.187.187 0 0 0 .136.057h.033v.064c0 .022.01.033.032.033C.279.645.29.634.29.612V.548h.032C.376.548.422.529.46.49A.186.186 0 0 0 .516.354V.322c0-.053-.02-.1-.058-.137A.187.187 0 0 0 .322.13H.29z"/></symbol><symbol id="K"><path d="M.129.129H.032C.011.129 0 .139 0 .16s.01.032.032.032H.13V.29c0 .022.01.032.032.032S.193.312.193.29V.193H.29c.022 0 .032-.01.032-.032C.322.14.312.13.29.13H.193V.032C.193.011.183 0 .161 0 .14 0 .13.01.13.032V.13z"/></symbol><symbol id="L"><path d="M.032.645h.322C.376.645.387.634.387.612v-.58C.387.011.376 0 .354 0 .333 0 .322.01.322.032V.58H.064V.032C.064.011.054 0 .032 0 .011 0 0 .01 0 .032v.58c0 .022.01.033.032.033z"/></symbol><symbol id="M"><path d="M.2.226.317.05A.033.033 0 0 0 .322.032C.322.011.312 0 .29 0a.03.03 0 0 0-.027.014L.161.167.06.014A.03.03 0 0 0 .032 0 .032.032 0 0 0 .01.01.032.032 0 0 0 0 .031C0 .04.002.045.005.05l.117.176L.005.4A.033.033 0 0 0 0 .419C0 .44.01.45.032.45A.03.03 0 0 0 .06.437L.161.284l.102.153A.03.03 0 0 0 .29.451C.312.451.322.441.322.42A.033.033 0 0 0 .317.401L.2.226z"/></symbol><symbol id="N"><path d="M.115.194A.128.128 0 0 0 0 .322C0 .358.012.39.037.414A.125.125 0 0 0 .13.45H.29C.312.451.322.441.322.42V.032C.322.011.312 0 .29 0 .269 0 .258.01.258.032v.161H.192L.058.013A.03.03 0 0 0 .032 0C.011 0 0 .01 0 .032c0 .008.002.014.006.02l.109.142m-.05.128C.064.305.07.29.082.277A.062.062 0 0 1 .13.257h.129v.13h-.13a.063.063 0 0 1-.045-.02.062.062 0 0 1-.019-.045z"/></symbol><use xlink:href="#J" transform="matrix(8.15997 0 0 -8.15997 322.368 81.958)"/><use xlink:href="#y" transform="matrix(8.15997 0 0 -8.15997 327.672 81.958)"/><use xlink:href="#t" transform="matrix(8.15997 0 0 -8.15997 331.344 81.958)"/><use xlink:href="#y" transform="matrix(8.15997 0 0 -8.15997 336.158 81.958)"/><use xlink:href="#K" transform="matrix(8.15997 0 0 -8.15997 339.912 81.432)"/><use xlink:href="#L" transform="matrix(8.15997 0 0 -8.15997 343.584 81.958)"/><use xlink:href="#q" transform="matrix(8.15997 0 0 -8.15997 347.827 81.958)"/><use xlink:href="#r" transform="matrix(8.15997 0 0 -8.15997 351.988 83.536)"/><use xlink:href="#o" transform="matrix(8.15997 0 0 -8.15997 355.742 81.958)"/><use xlink:href="#b" transform="matrix(8.15997 0 0 -8.15997 359.414 81.958)"/><use xlink:href="#D" transform="matrix(8.15997 0 0 -8.15997 363.167 81.958)"/><use xlink:href="#q" transform="matrix(8.15997 0 0 -8.15997 367.329 81.958)"/><use xlink:href="#M" transform="matrix(8.15997 0 0 -8.15997 371.409 81.958)"/><use xlink:href="#s" transform="matrix(8.15997 0 0 -8.15997 375.08 81.958)"/><use xlink:href="#r" transform="matrix(8.15997 0 0 -8.15997 378.671 83.536)"/><use xlink:href="#G" transform="matrix(8.15997 0 0 -8.15997 382.262 81.958)"/><use xlink:href="#b" transform="matrix(8.15997 0 0 -8.15997 385.362 81.958)"/><use xlink:href="#q" transform="matrix(8.15997 0 0 -8.15997 388.953 81.958)"/><use xlink:href="#N" transform="matrix(8.15997 0 0 -8.15997 393.033 81.958)"/><symbol id="O"><path d="M.064.419A.126.126 0 0 0 .14.45c.013 0 .025.008.037.023a.068.068 0 0 1 .016.042.062.062 0 0 1-.018.046.062.062 0 0 1-.046.018.063.063 0 0 1-.046-.019.062.062 0 0 1-.019-.045V.419m.162.019A.16.16 0 0 0 .323.29V.161A.155.155 0 0 0 .274.047.155.155 0 0 0 .16 0a.155.155 0 0 0-.114.047A.157.157 0 0 0 0 .16v.355c0 .036.013.066.038.09a.124.124 0 0 0 .09.039A.123.123 0 0 0 .22.607.124.124 0 0 0 .258.516.099.099 0 0 0 .226.438M.258.161V.29c0 .027-.01.05-.029.068a.092.092 0 0 1-.068.029.094.094 0 0 1-.069-.029A.094.094 0 0 1 .064.29V.161A.095.095 0 0 1 .161.064c.027 0 .05.01.068.029A.093.093 0 0 1 .258.16z"/></symbol><use xlink:href="#m" transform="matrix(8.15997 0 0 -8.15997 364.246 90.72)"/><use xlink:href="#u" transform="matrix(8.15997 0 0 -8.15997 367.473 90.72)"/><use xlink:href="#O" transform="matrix(8.15997 0 0 -8.15997 371.1 90.72)"/><use xlink:href="#I" transform="matrix(8.15997 0 0 -8.15997 374.772 90.72)"/><use xlink:href="#O" transform="matrix(8.15997 0 0 -8.15997 378.852 90.72)"/><use xlink:href="#s" transform="matrix(8.15997 0 0 -8.15997 382.606 90.72)"/><use xlink:href="#G" transform="matrix(8.15997 0 0 -8.15997 386.196 90.72)"/><use xlink:href="#b" transform="matrix(8.15997 0 0 -8.15997 389.46 90.72)"/><use xlink:href="#o" transform="matrix(8.15997 0 0 -8.15997 393.05 90.72)"/><path d="m408.84 109.68.72 2.52-1.56-2.16z" fill-rule="evenodd"/><path stroke-width=".72" stroke-linecap="round" stroke-linejoin="round" fill="none" stroke="#000" d="m408.48 109.8-12.84-26.76h-73.2"/><symbol id="P"><path d="M.413.153.516.62C.52.636.531.645.548.645.569.645.58.634.58.612V.605L.45.027C.448.009.437 0 .42 0 .404 0 .393.01.387.028L.29.318.194.027C.188.009.177 0 .16 0 .144 0 .134.01.13.028L.001.605A.035.035 0 0 0 0 .612c0 .022.01.033.032.033C.05.645.06.636.064.619L.167.152l.091.272C.264.442.275.451.29.451.306.451.316.442.322.424l.09-.27z"/></symbol><symbol id="Q"><path d="M.295.358A.18.18 0 0 0 .387.193.186.186 0 0 0 .33.057.186.186 0 0 0 .193 0h-.16C.01 0 0 .01 0 .032v.58c0 .022.01.033.032.033h.161A.154.154 0 0 0 .308.598.154.154 0 0 0 .354.483a.154.154 0 0 0-.06-.125M.065.58V.387h.13c.026 0 .049.01.068.028A.093.093 0 0 1 .29.483C.29.51.28.533.262.552A.093.093 0 0 1 .193.58H.064m0-.258V.064h.13c.035 0 .066.013.09.038a.125.125 0 0 1 .038.091.123.123 0 0 1-.037.092.123.123 0 0 1-.092.037H.064z"/></symbol><use xlink:href="#P" transform="matrix(8.15997 0 0 -8.15997 330.645 99.601)"/><use xlink:href="#Q" transform="matrix(8.15997 0 0 -8.15997 336.439 99.601)"/><path d="m350.04 110.16 1.68 2.04-2.28-1.44z" fill-rule="evenodd"/><path stroke-width=".72" stroke-linecap="round" stroke-linejoin="round" fill="none" stroke="#000" d="m349.8 110.4-10.8-9.72h-8.88"/><symbol id="R"><path d="M.116.271A.175.175 0 0 0 .03.343.2.2 0 0 0 0 .45c0 .054.019.1.057.137a.186.186 0 0 0 .136.057h.161C.376.645.387.634.387.612v-.58C.387.011.376 0 .354 0 .333 0 .322.01.322.032v.226h-.14l-.12-.24A.03.03 0 0 0 .032 0 .03.03 0 0 0 .01.01.03.03 0 0 0 0 .032c0 .005.001.01.004.015L.116.27m.206.31H.193A.125.125 0 0 1 .102.541a.124.124 0 0 1-.038-.09c0-.037.013-.068.038-.093A.126.126 0 0 1 .193.322h.13V.58z"/></symbol><use xlink:href="#R" transform="matrix(8.15997 0 0 -8.15997 274.244 84.839)"/><use xlink:href="#p" transform="matrix(8.15997 0 0 -8.15997 278.406 84.839)"/><use xlink:href="#E" transform="matrix(8.15997 0 0 -8.15997 282.16 84.839)"/><use xlink:href="#s" transform="matrix(8.15997 0 0 -8.15997 285.913 84.839)"/><use xlink:href="#b" transform="matrix(8.15997 0 0 -8.15997 289.503 84.839)"/><use xlink:href="#G" transform="matrix(8.15997 0 0 -8.15997 293.093 84.839)"/><use xlink:href="#n" transform="matrix(8.15997 0 0 -8.15997 271.607 93.6)"/><use xlink:href="#q" transform="matrix(8.15997 0 0 -8.15997 276.421 93.6)"/><use xlink:href="#r" transform="matrix(8.15997 0 0 -8.15997 280.501 95.178)"/><use xlink:href="#b" transform="matrix(8.15997 0 0 -8.15997 284.173 93.6)"/><use xlink:href="#s" transform="matrix(8.15997 0 0 -8.15997 287.845 93.6)"/><use xlink:href="#t" transform="matrix(8.15997 0 0 -8.15997 291.435 93.6)"/><path d="m314.52 109.92 1.32 2.28-2.04-1.8z" fill-rule="evenodd"/><path stroke-width=".72" stroke-linecap="round" stroke-linejoin="round" fill="none" stroke="#000" d="M314.16 110.16 295.08 86.4h-23.52"/><symbol id="S"><path d="M.258.128v.065h-.13a.125.125 0 0 0-.09.038A.125.125 0 0 0 0 .322v.29c0 .022.01.033.032.033S.064.634.064.612v-.29c0-.017.007-.032.02-.045a.062.062 0 0 1 .045-.02h.129v.355c0 .022.01.033.032.033S.322.634.322.612V.13A.125.125 0 0 0 .285.038.121.121 0 0 0 .195 0h-.13C.042 0 .031.01.031.032a.03.03 0 0 0 .01.023.03.03 0 0 0 .022.01h.13c.018 0 .033.005.045.018a.06.06 0 0 1 .019.045z"/></symbol><use xlink:href="#x" transform="matrix(8.15997 0 0 -8.15997 258.167 100.68)"/><use xlink:href="#b" transform="matrix(8.15997 0 0 -8.15997 261.92 100.68)"/><use xlink:href="#S" transform="matrix(8.15997 0 0 -8.15997 265.593 102.259)"/><use xlink:href="#w" transform="matrix(8.15997 0 0 -8.15997 269.346 100.68)"/><use xlink:href="#b" transform="matrix(8.15997 0 0 -8.15997 272.937 100.68)"/><use xlink:href="#q" transform="matrix(8.15997 0 0 -8.15997 276.527 100.68)"/><path d="m292.44 110.4 1.92 1.8-2.4-1.08z" fill-rule="evenodd"/><path stroke-width=".72" stroke-linecap="round" stroke-linejoin="round" fill="none" stroke="#000" d="m292.2 110.76-12.6-8.52h-21.48"/><symbol id="T"><path d="M0 .612c0 .022.01.033.032.033h.322C.376.645.387.634.387.612.387.591.376.58.354.58H.226V.032C.226.011.215 0 .193 0 .172 0 .161.01.161.032V.58H.032C.011.58 0 .59 0 .612z"/></symbol><symbol id="U"><path d="M.322.29V.161A.156.156 0 0 0 .275.047.155.155 0 0 0 .16 0a.157.157 0 0 0-.114.047A.157.157 0 0 0 0 .16V.29c0 .065.028.112.083.143A.138.138 0 0 0 .148.45L.006.593C.002.597 0 .603 0 .612c0 .022.01.033.032.033h.259C.312.645.323.634.323.612.323.591.312.58.29.58H.107L.27.41A.172.172 0 0 0 .322.29M.258.161V.29c0 .027-.01.05-.029.068a.093.093 0 0 1-.068.029.093.093 0 0 1-.068-.029A.093.093 0 0 1 .064.29V.161A.095.095 0 0 1 .161.064c.027 0 .05.01.068.029A.093.093 0 0 1 .258.16z"/></symbol><use xlink:href="#T" transform="matrix(8.15997 0 0 -8.15997 199.485 158.88)"/><use xlink:href="#q" transform="matrix(8.15997 0 0 -8.15997 203.647 158.88)"/><use xlink:href="#U" transform="matrix(8.15997 0 0 -8.15997 207.89 158.88)"/><use xlink:href="#q" transform="matrix(8.15997 0 0 -8.15997 211.643 158.88)"/><use xlink:href="#b" transform="matrix(8.15997 0 0 -8.15997 215.723 158.88)"/><path d="m231.96 178.2 1.08 2.4-1.8-1.92z" fill-rule="evenodd"/><path stroke-width=".72" stroke-linecap="round" stroke-linejoin="round" fill="none" stroke="#000" d="m231.6 178.44-13.2-18.48h-18.84"/><symbol id="V"><path d="M.064.58V.032C.064.011.054 0 .032 0 .011 0 0 .01 0 .032v.58c0 .022.01.033.032.033H.29C.312.645.322.634.322.612.322.591.312.58.29.58H.064z"/></symbol><use xlink:href="#V" transform="matrix(8.15997 0 0 -8.15997 189.524 184.077)"/><use xlink:href="#a" transform="matrix(8.15997 0 0 -8.15997 193.278 184.077)"/><use xlink:href="#q" transform="matrix(8.15997 0 0 -8.15997 196.95 184.077)"/><use xlink:href="#O" transform="matrix(8.15997 0 0 -8.15997 201.193 184.077)"/><use xlink:href="#w" transform="matrix(8.15997 0 0 -8.15997 204.865 184.077)"/><use xlink:href="#o" transform="matrix(8.15997 0 0 -8.15997 208.455 184.077)"/><use xlink:href="#O" transform="matrix(8.15997 0 0 -8.15997 212.046 184.077)"/><use xlink:href="#y" transform="matrix(8.15997 0 0 -8.15997 215.718 184.077)"/><use xlink:href="#A" transform="matrix(8.15997 0 0 -8.15997 178.005 192.839)"/><use xlink:href="#y" transform="matrix(8.15997 0 0 -8.15997 182.167 192.839)"/><use xlink:href="#p" transform="matrix(8.15997 0 0 -8.15997 185.92 192.839)"/><use xlink:href="#E" transform="matrix(8.15997 0 0 -8.15997 189.674 192.839)"/><use xlink:href="#o" transform="matrix(8.15997 0 0 -8.15997 193.346 192.839)"/><use xlink:href="#F" transform="matrix(8.15997 0 0 -8.15997 197.1 193.628)"/><use xlink:href="#o" transform="matrix(8.15997 0 0 -8.15997 201.261 192.839)"/><use xlink:href="#y" transform="matrix(8.15997 0 0 -8.15997 204.852 192.839)"/><use xlink:href="#p" transform="matrix(8.15997 0 0 -8.15997 208.524 192.839)"/><use xlink:href="#s" transform="matrix(8.15997 0 0 -8.15997 212.114 192.839)"/><use xlink:href="#r" transform="matrix(8.15997 0 0 -8.15997 215.704 194.417)"/><path d="m231.96 204 1.08 2.4-1.8-1.92z" fill-rule="evenodd"/><path stroke-width=".72" stroke-linecap="round" stroke-linejoin="round" fill="none" stroke="#000" d="m231.6 204.24-13.2-18.6h-40.32"/><symbol id="W"><path d="M.032.645h.161c.054 0 .1-.02.137-.057A.185.185 0 0 0 .387.45a.189.189 0 0 0-.054-.14.189.189 0 0 0-.14-.053H.064V.032C.064.011.054 0 .032 0 .011 0 0 .01 0 .032v.58c0 .022.01.033.032.033M.064.58V.322h.13c.035 0 .066.013.09.037a.125.125 0 0 1 .038.092.123.123 0 0 1-.037.091.123.123 0 0 1-.092.038H.064z"/></symbol><symbol id="X"><path d="M.193.258V.58H.161A.093.093 0 0 1 .093.552.093.093 0 0 1 .064.483V.354A.095.095 0 0 1 .161.258h.032m0-.065H.161A.157.157 0 0 0 .047.24.157.157 0 0 0 0 .354v.13c0 .044.016.082.047.113.031.032.07.048.114.048h.032V.74c0 .022.011.032.033.032.021 0 .032-.01.032-.032V.645A.274.274 0 0 0 .353.633a.16.16 0 0 0 .099-.15V.354A.156.156 0 0 0 .403.24.155.155 0 0 0 .29.193H.258v-.16C.258.01.248 0 .226 0S.193.01.193.032v.161m.065.065H.29c.027 0 .05.01.068.028a.093.093 0 0 1 .029.068v.13c0 .026-.01.049-.029.068A.093.093 0 0 1 .29.58H.258V.258z"/></symbol><use xlink:href="#W" transform="matrix(8.15997 0 0 -8.15997 157.127 214.8)"/><use xlink:href="#s" transform="matrix(8.15997 0 0 -8.15997 161.289 214.8)"/><use xlink:href="#D" transform="matrix(8.15997 0 0 -8.15997 164.96 214.8)"/><use xlink:href="#y" transform="matrix(8.15997 0 0 -8.15997 169.122 214.8)"/><use xlink:href="#p" transform="matrix(8.15997 0 0 -8.15997 172.713 214.8)"/><use xlink:href="#t" transform="matrix(8.15997 0 0 -8.15997 176.466 214.8)"/><use xlink:href="#u" transform="matrix(8.15997 0 0 -8.15997 180.592 214.8)"/><use xlink:href="#t" transform="matrix(8.15997 0 0 -8.15997 184.382 214.8)"/><use xlink:href="#s" transform="matrix(8.15997 0 0 -8.15997 189.033 214.8)"/><use xlink:href="#a" transform="matrix(8.15997 0 0 -8.15997 192.786 214.8)"/><use xlink:href="#s" transform="matrix(8.15997 0 0 -8.15997 196.377 214.8)"/><use xlink:href="#X" transform="matrix(8.15997 0 0 -8.15997 200.049 216.379)"/><use xlink:href="#y" transform="matrix(8.15997 0 0 -8.15997 204.781 214.8)"/><use xlink:href="#p" transform="matrix(8.15997 0 0 -8.15997 208.453 214.8)"/><use xlink:href="#y" transform="matrix(8.15997 0 0 -8.15997 212.044 214.8)"/><use xlink:href="#O" transform="matrix(8.15997 0 0 -8.15997 215.716 214.8)"/><symbol id="Y"><path d="M.322.419V.032C.322.011.312 0 .29 0H.129a.126.126 0 0 0-.092.037A.126.126 0 0 0 0 .13v.29C0 .44.01.45.032.45S.064.441.064.42v-.29c0-.018.007-.033.02-.046A.062.062 0 0 1 .128.064h.129V.42C.258.44.268.45.29.45S.322.441.322.42M.225.58H.097C.075.58.064.59.064.612s.011.033.033.033h.128C.247.645.257.634.257.612.257.591.247.58.225.58z"/></symbol><symbol id="Z"><path d="M.29.097C.312.097.322.086.322.064.322.052.316.042.304.036A.397.397 0 0 0 .113 0a.11.11 0 0 0-.08.033.11.11 0 0 0-.033.08C0 .16.021.194.064.215l.167.08a.044.044 0 0 1 .027.043.047.047 0 0 1-.014.035.047.047 0 0 1-.035.014A.354.354 0 0 1 .128.38.174.174 0 0 1 .08.358a.03.03 0 0 0-.038.006.03.03 0 0 0-.01.023c0 .011.006.02.017.028a.298.298 0 0 0 .16.036.108.108 0 0 0 .08-.033.108.108 0 0 0 .033-.08.106.106 0 0 0-.065-.102L.092.156A.045.045 0 0 1 .064.114C.064.099.07.088.08.079c.01-.01.02-.015.034-.015.063 0 .118.01.165.03A.031.031 0 0 0 .29.097z"/></symbol><use xlink:href="#J" transform="matrix(8.15997 0 0 -8.15997 121.846 223.558)"/><use xlink:href="#o" transform="matrix(8.15997 0 0 -8.15997 127.15 223.558)"/><use xlink:href="#r" transform="matrix(8.15997 0 0 -8.15997 130.822 225.136)"/><use xlink:href="#D" transform="matrix(8.15997 0 0 -8.15997 134.575 223.558)"/><use xlink:href="#s" transform="matrix(8.15997 0 0 -8.15997 138.737 223.558)"/><use xlink:href="#p" transform="matrix(8.15997 0 0 -8.15997 142.49 223.558)"/><use xlink:href="#p" transform="matrix(8.15997 0 0 -8.15997 146.244 223.558)"/><use xlink:href="#I" transform="matrix(8.15997 0 0 -8.15997 149.916 223.558)"/><use xlink:href="#Y" transform="matrix(8.15997 0 0 -8.15997 154.16 223.558)"/><use xlink:href="#u" transform="matrix(8.15997 0 0 -8.15997 157.305 223.558)"/><use xlink:href="#D" transform="matrix(8.15997 0 0 -8.15997 161.095 223.558)"/><use xlink:href="#q" transform="matrix(8.15997 0 0 -8.15997 165.257 223.558)"/><use xlink:href="#Z" transform="matrix(8.15997 0 0 -8.15997 169.5 223.558)"/><use xlink:href="#q" transform="matrix(8.15997 0 0 -8.15997 173.172 223.558)"/><use xlink:href="#H" transform="matrix(8.15997 0 0 -8.15997 177.415 223.558)"/><use xlink:href="#o" transform="matrix(8.15997 0 0 -8.15997 180.76 223.558)"/><use xlink:href="#p" transform="matrix(8.15997 0 0 -8.15997 184.351 223.558)"/><use xlink:href="#u" transform="matrix(8.15997 0 0 -8.15997 187.416 223.558)"/><use xlink:href="#b" transform="matrix(8.15997 0 0 -8.15997 191.124 223.558)"/><use xlink:href="#r" transform="matrix(8.15997 0 0 -8.15997 194.714 225.136)"/><use xlink:href="#S" transform="matrix(8.15997 0 0 -8.15997 198.305 225.136)"/><use xlink:href="#w" transform="matrix(8.15997 0 0 -8.15997 201.895 223.558)"/><use xlink:href="#G" transform="matrix(8.15997 0 0 -8.15997 205.485 223.558)"/><use xlink:href="#b" transform="matrix(8.15997 0 0 -8.15997 208.586 223.558)"/><use xlink:href="#y" transform="matrix(8.15997 0 0 -8.15997 212.177 223.558)"/><use xlink:href="#Y" transform="matrix(8.15997 0 0 -8.15997 215.767 223.558)"/><path d="m231.96 234.6 1.08 2.4-1.8-1.8z" fill-rule="evenodd"/><path stroke-width=".72" stroke-linecap="round" stroke-linejoin="round" fill="none" stroke="#000" d="m231.6 234.96-13.2-18.6h-96.6"/><use xlink:href="#C" transform="matrix(8.15997 0 0 -8.15997 155.565 283.44)"/><use xlink:href="#y" transform="matrix(8.15997 0 0 -8.15997 159.727 283.44)"/><use xlink:href="#D" transform="matrix(8.15997 0 0 -8.15997 163.48 283.44)"/><use xlink:href="#U" transform="matrix(8.15997 0 0 -8.15997 167.724 283.44)"/><use xlink:href="#q" transform="matrix(8.15997 0 0 -8.15997 171.396 283.44)"/><use xlink:href="#r" transform="matrix(8.15997 0 0 -8.15997 175.639 285.018)"/><use xlink:href="#E" transform="matrix(8.15997 0 0 -8.15997 179.31 283.44)"/><use xlink:href="#u" transform="matrix(8.15997 0 0 -8.15997 182.539 283.44)"/><use xlink:href="#W" transform="matrix(8.15997 0 0 -8.15997 186.247 283.44)"/><use xlink:href="#y" transform="matrix(8.15997 0 0 -8.15997 190.49 283.44)"/><use xlink:href="#U" transform="matrix(8.15997 0 0 -8.15997 194.08 283.44)"/><use xlink:href="#o" transform="matrix(8.15997 0 0 -8.15997 197.67 283.44)"/><use xlink:href="#p" transform="matrix(8.15997 0 0 -8.15997 201.261 283.44)"/><use xlink:href="#y" transform="matrix(8.15997 0 0 -8.15997 204.852 283.44)"/><use xlink:href="#O" transform="matrix(8.15997 0 0 -8.15997 208.524 283.44)"/><use xlink:href="#o" transform="matrix(8.15997 0 0 -8.15997 212.114 283.44)"/><use xlink:href="#z" transform="matrix(8.15997 0 0 -8.15997 215.704 283.44)"/><use xlink:href="#J" transform="matrix(8.15997 0 0 -8.15997 202.127 292.078)"/><use xlink:href="#y" transform="matrix(8.15997 0 0 -8.15997 207.43 292.078)"/><use xlink:href="#t" transform="matrix(8.15997 0 0 -8.15997 211.02 292.078)"/><use xlink:href="#y" transform="matrix(8.15997 0 0 -8.15997 215.672 292.078)"/><path d="m231.96 302.76 1.08 2.4-1.8-1.92z" fill-rule="evenodd"/><path stroke-width=".72" stroke-linecap="round" stroke-linejoin="round" fill="none" stroke="#000" d="m231.6 303-13.2-18.6h-62.88"/><use xlink:href="#x" transform="matrix(8.15997 0 0 -8.15997 184.846 303.96)"/><use xlink:href="#t" transform="matrix(8.15997 0 0 -8.15997 188.6 303.96)"/><use xlink:href="#r" transform="matrix(8.15997 0 0 -8.15997 193.251 305.537)"/><use xlink:href="#q" transform="matrix(8.15997 0 0 -8.15997 197.005 303.96)"/><use xlink:href="#M" transform="matrix(8.15997 0 0 -8.15997 201.085 303.96)"/><use xlink:href="#y" transform="matrix(8.15997 0 0 -8.15997 204.757 303.96)"/><use xlink:href="#O" transform="matrix(8.15997 0 0 -8.15997 208.347 303.96)"/><use xlink:href="#b" transform="matrix(8.15997 0 0 -8.15997 212.1 303.96)"/><use xlink:href="#o" transform="matrix(8.15997 0 0 -8.15997 215.691 303.96)"/><symbol id="aa"><path d="M.322.193v.258a.123.123 0 0 1-.037.091.123.123 0 0 1-.092.038.125.125 0 0 1-.091-.038.124.124 0 0 1-.038-.09V.192c0-.036.013-.066.038-.091A.126.126 0 0 1 .193.064C.23.064.26.077.285.102a.125.125 0 0 1 .037.091m.065 0A.186.186 0 0 0 .33.057.186.186 0 0 0 .193 0a.186.186 0 0 0-.136.057A.186.186 0 0 0 0 .193v.258c0 .054.019.1.057.137a.186.186 0 0 0 .136.057c.054 0 .1-.02.137-.057A.185.185 0 0 0 .387.45V.193z"/></symbol><symbol id="ab"><path d="M.064.387A.996.996 0 0 1 .13.032.03.03 0 0 0 .119.01.031.031 0 0 0 .096 0C.083 0 .073.005.07.015a1.056 1.056 0 0 0 0 .743c.004.01.014.015.027.015C.118.773.13.763.13.741c0-.003 0-.007-.003-.012A.996.996 0 0 1 .064.386z"/></symbol><symbol id="ac"><path d="M.354.645C.376.645.387.634.387.612v-.58C.387.011.376 0 .354 0 .333 0 .322.01.322.032v.43L.064.064c0-.022 0-.036-.002-.042C.06.007.05 0 .033 0 .011 0 0 .01 0 .032v.58c0 .022.01.033.032.033S.064.634.064.612v-.43L.322.58c0 .023 0 .037.002.042.004.015.014.023.03.023z"/></symbol><symbol id="ad"><path d="M.295.358A.18.18 0 0 0 .387.193.186.186 0 0 0 .33.057.186.186 0 0 0 .193 0h-.16C.01 0 0 .01 0 .032v.58c0 .022.01.033.032.033h.161A.154.154 0 0 0 .308.598.154.154 0 0 0 .354.483a.154.154 0 0 0-.06-.125M.065.58V.387h.13c.026 0 .049.01.068.028A.093.093 0 0 1 .29.483C.29.51.28.533.262.552A.093.093 0 0 1 .193.58H.064m0-.258V.064h.13c.035 0 .066.013.09.038a.125.125 0 0 1 .038.091.123.123 0 0 1-.037.092.123.123 0 0 1-.092.037H.064z"/></symbol><symbol id="ae"><path d="M.451.097H.13a.125.125 0 0 0-.092.037A.125.125 0 0 0 0 .226v.29c0 .021.01.032.032.032S.064.538.064.516v-.29c0-.018.007-.033.02-.046A.062.062 0 0 1 .128.161h.064v.355c0 .021.011.032.033.032.021 0 .032-.01.032-.032V.16h.129v.355c0 .021.01.032.032.032C.44.548.45.538.45.516V.16h.032C.505.161.516.151.516.13V.032C.516.011.505 0 .483 0 .462 0 .451.01.451.032v.065z"/></symbol><symbol id="af"><path d="M.064.387A.996.996 0 0 1 0 .74a.03.03 0 0 0 .01.023c.006.006.014.01.023.01C.046.773.056.767.06.757a1.056 1.056 0 0 0 0-.743C.056.005.046 0 .033 0A.032.032 0 0 0 .01.01.03.03 0 0 0 0 .032a1.21 1.21 0 0 1 .045.16.996.996 0 0 1 .02.195z"/></symbol><use xlink:href="#aa" transform="matrix(8.15997 0 0 -8.15997 134.086 313.198)"/><use xlink:href="#b" transform="matrix(8.15997 0 0 -8.15997 138.247 313.198)"/><use xlink:href="#p" transform="matrix(8.15997 0 0 -8.15997 142 313.198)"/><use xlink:href="#q" transform="matrix(8.15997 0 0 -8.15997 145.754 313.198)"/><use xlink:href="#u" transform="matrix(8.15997 0 0 -8.15997 149.39 313.198)"/><use xlink:href="#w" transform="matrix(8.15997 0 0 -8.15997 153.18 313.198)"/><use xlink:href="#y" transform="matrix(8.15997 0 0 -8.15997 156.852 313.198)"/><use xlink:href="#t" transform="matrix(8.15997 0 0 -8.15997 160.606 313.198)"/><use xlink:href="#y" transform="matrix(8.15997 0 0 -8.15997 165.42 313.198)"/><use xlink:href="#a" transform="matrix(8.15997 0 0 -8.15997 169.092 313.198)"/><use xlink:href="#b" transform="matrix(8.15997 0 0 -8.15997 172.846 313.198)"/><use xlink:href="#o" transform="matrix(8.15997 0 0 -8.15997 176.6 313.198)"/><use xlink:href="#u" transform="matrix(8.15997 0 0 -8.15997 179.745 313.198)"/><use xlink:href="#ab" transform="matrix(8.15997 0 0 -8.15997 183.372 313.724)"/><use xlink:href="#ac" transform="matrix(8.15997 0 0 -8.15997 185.412 313.198)"/><use xlink:href="#L" transform="matrix(8.15997 0 0 -8.15997 189.492 313.198)"/><use xlink:href="#u" transform="matrix(8.15997 0 0 -8.15997 193.046 313.198)"/><use xlink:href="#ad" transform="matrix(8.15997 0 0 -8.15997 196.754 313.198)"/><use xlink:href="#q" transform="matrix(8.15997 0 0 -8.15997 200.834 313.198)"/><use xlink:href="#ae" transform="matrix(8.15997 0 0 -8.15997 204.914 313.987)"/><use xlink:href="#S" transform="matrix(8.15997 0 0 -8.15997 210.055 314.776)"/><use xlink:href="#b" transform="matrix(8.15997 0 0 -8.15997 213.645 313.198)"/><use xlink:href="#af" transform="matrix(8.15997 0 0 -8.15997 217.236 313.724)"/><path d="m231.24 314.76 1.8 1.92-2.28-1.32z" fill-rule="evenodd"/><path stroke-width=".72" stroke-linecap="round" stroke-linejoin="round" fill="none" stroke="#000" d="m231 315.12-12.6-9.6h-84.24"/><use xlink:href="#x" transform="matrix(8.15997 0 0 -8.15997 170.204 374.04)"/><use xlink:href="#q" transform="matrix(8.15997 0 0 -8.15997 173.957 374.04)"/><use xlink:href="#a" transform="matrix(8.15997 0 0 -8.15997 178.037 374.04)"/><use xlink:href="#y" transform="matrix(8.15997 0 0 -8.15997 181.71 374.04)"/><use xlink:href="#p" transform="matrix(8.15997 0 0 -8.15997 185.3 374.04)"/><use xlink:href="#u" transform="matrix(8.15997 0 0 -8.15997 188.527 374.04)"/><use xlink:href="#b" transform="matrix(8.15997 0 0 -8.15997 192.154 374.04)"/><use xlink:href="#r" transform="matrix(8.15997 0 0 -8.15997 195.908 375.617)"/><use xlink:href="#q" transform="matrix(8.15997 0 0 -8.15997 199.498 374.04)"/><use xlink:href="#G" transform="matrix(8.15997 0 0 -8.15997 203.66 374.04)"/><use xlink:href="#y" transform="matrix(8.15997 0 0 -8.15997 206.842 374.04)"/><use xlink:href="#t" transform="matrix(8.15997 0 0 -8.15997 210.514 374.04)"/><use xlink:href="#I" transform="matrix(8.15997 0 0 -8.15997 215.165 374.04)"/><use xlink:href="#ad" transform="matrix(8.15997 0 0 -8.15997 200.565 382.797)"/><use xlink:href="#s" transform="matrix(8.15997 0 0 -8.15997 204.726 382.797)"/><use xlink:href="#G" transform="matrix(8.15997 0 0 -8.15997 208.398 382.797)"/><use xlink:href="#p" transform="matrix(8.15997 0 0 -8.15997 211.58 382.797)"/><use xlink:href="#q" transform="matrix(8.15997 0 0 -8.15997 215.171 382.797)"/><path d="m231.96 393.36 1.08 2.4-1.8-1.92z" fill-rule="evenodd"/><path stroke-width=".72" stroke-linecap="round" stroke-linejoin="round" fill="none" stroke="#000" d="m231.6 393.6-13.2-18.48h-48.24"/><use xlink:href="#ad" transform="matrix(8.15997 0 0 -8.15997 159.765 398.88)"/><use xlink:href="#q" transform="matrix(8.15997 0 0 -8.15997 163.926 398.88)"/><use xlink:href="#G" transform="matrix(8.15997 0 0 -8.15997 168.17 398.88)"/><use xlink:href="#o" transform="matrix(8.15997 0 0 -8.15997 171.434 398.88)"/><use xlink:href="#a" transform="matrix(8.15997 0 0 -8.15997 175.106 398.88)"/><use xlink:href="#s" transform="matrix(8.15997 0 0 -8.15997 178.86 398.88)"/><use xlink:href="#y" transform="matrix(8.15997 0 0 -8.15997 182.531 398.88)"/><use xlink:href="#G" transform="matrix(8.15997 0 0 -8.15997 186.285 398.88)"/><use xlink:href="#t" transform="matrix(8.15997 0 0 -8.15997 189.549 398.88)"/><use xlink:href="#r" transform="matrix(8.15997 0 0 -8.15997 194.2 400.457)"/><use xlink:href="#y" transform="matrix(8.15997 0 0 -8.15997 197.79 398.88)"/><use xlink:href="#O" transform="matrix(8.15997 0 0 -8.15997 201.38 398.88)"/><use xlink:href="#G" transform="matrix(8.15997 0 0 -8.15997 204.971 398.88)"/><use xlink:href="#b" transform="matrix(8.15997 0 0 -8.15997 208.153 398.88)"/><use xlink:href="#q" transform="matrix(8.15997 0 0 -8.15997 211.744 398.88)"/><use xlink:href="#N" transform="matrix(8.15997 0 0 -8.15997 215.824 398.88)"/><use xlink:href="#w" transform="matrix(8.15997 0 0 -8.15997 185.926 407.64)"/><use xlink:href="#o" transform="matrix(8.15997 0 0 -8.15997 189.68 407.64)"/><use xlink:href="#O" transform="matrix(8.15997 0 0 -8.15997 193.352 407.64)"/><use xlink:href="#y" transform="matrix(8.15997 0 0 -8.15997 197.105 407.64)"/><use xlink:href="#O" transform="matrix(8.15997 0 0 -8.15997 200.777 407.64)"/><use xlink:href="#q" transform="matrix(8.15997 0 0 -8.15997 204.53 407.64)"/><use xlink:href="#r" transform="matrix(8.15997 0 0 -8.15997 208.61 409.218)"/><use xlink:href="#p" transform="matrix(8.15997 0 0 -8.15997 212.201 407.64)"/><use xlink:href="#N" transform="matrix(8.15997 0 0 -8.15997 215.792 407.64)"/><path d="m231.96 418.8 1.08 2.4-1.8-1.92z" fill-rule="evenodd"/><path stroke-width=".72" stroke-linecap="round" stroke-linejoin="round" fill="none" stroke="#000" d="m231.6 419.04-13.2-18.48h-58.68"/><symbol id="ag"><path d="M0 .032v.58c0 .022.01.033.032.033S.064.634.064.612V.387h.258v.225c0 .022.011.033.032.033.022 0 .033-.011.033-.033v-.58C.387.011.376 0 .354 0 .333 0 .322.01.322.032v.29H.064v-.29C.064.011.054 0 .032 0 .011 0 0 .01 0 .032z"/></symbol><use xlink:href="#ag" transform="matrix(8.15997 0 0 -8.15997 188.564 421.2)"/><use xlink:href="#y" transform="matrix(8.15997 0 0 -8.15997 192.725 421.2)"/><use xlink:href="#t" transform="matrix(8.15997 0 0 -8.15997 196.479 421.2)"/><use xlink:href="#q" transform="matrix(8.15997 0 0 -8.15997 201.293 421.2)"/><use xlink:href="#r" transform="matrix(8.15997 0 0 -8.15997 205.455 422.777)"/><use xlink:href="#o" transform="matrix(8.15997 0 0 -8.15997 209.045 421.2)"/><use xlink:href="#S" transform="matrix(8.15997 0 0 -8.15997 212.717 422.777)"/><use xlink:href="#G" transform="matrix(8.15997 0 0 -8.15997 216.308 421.2)"/><path d="m231.36 433.8 1.68 2.04-2.28-1.44z" fill-rule="evenodd"/><path stroke-width=".72" stroke-linecap="round" stroke-linejoin="round" fill="none" stroke="#000" d="m231.12 434.04-12.72-11.28h-29.88"/><use xlink:href="#ag" transform="matrix(8.15997 0 0 -8.15997 166.004 465.12)"/><use xlink:href="#s" transform="matrix(8.15997 0 0 -8.15997 170.166 465.12)"/><use xlink:href="#O" transform="matrix(8.15997 0 0 -8.15997 173.92 465.12)"/><use xlink:href="#G" transform="matrix(8.15997 0 0 -8.15997 177.673 465.12)"/><use xlink:href="#b" transform="matrix(8.15997 0 0 -8.15997 180.856 465.12)"/><use xlink:href="#q" transform="matrix(8.15997 0 0 -8.15997 184.61 465.12)"/><use xlink:href="#N" transform="matrix(8.15997 0 0 -8.15997 188.77 465.12)"/><use xlink:href="#u" transform="matrix(8.15997 0 0 -8.15997 191.998 465.12)"/><use xlink:href="#aa" transform="matrix(8.15997 0 0 -8.15997 195.625 465.12)"/><use xlink:href="#w" transform="matrix(8.15997 0 0 -8.15997 199.705 465.12)"/><use xlink:href="#t" transform="matrix(8.15997 0 0 -8.15997 203.295 465.12)"/><use xlink:href="#o" transform="matrix(8.15997 0 0 -8.15997 208.028 465.12)"/><use xlink:href="#b" transform="matrix(8.15997 0 0 -8.15997 211.619 465.12)"/><use xlink:href="#q" transform="matrix(8.15997 0 0 -8.15997 215.209 465.12)"/><path d="m231.96 484.44 1.08 2.4-1.8-1.8z" fill-rule="evenodd"/><path stroke-width=".72" stroke-linecap="round" stroke-linejoin="round" fill="none" stroke="#000" d="m231.6 484.8-13.2-18.6h-52.32"/><use xlink:href="#L" transform="matrix(8.15997 0 0 -8.15997 142.604 477.717)"/><use xlink:href="#o" transform="matrix(8.15997 0 0 -8.15997 146.766 477.717)"/><use xlink:href="#t" transform="matrix(8.15997 0 0 -8.15997 150.438 477.717)"/><use xlink:href="#s" transform="matrix(8.15997 0 0 -8.15997 155.17 477.717)"/><use xlink:href="#r" transform="matrix(8.15997 0 0 -8.15997 158.843 479.295)"/><use xlink:href="#u" transform="matrix(8.15997 0 0 -8.15997 161.989 477.717)"/><use xlink:href="#x" transform="matrix(8.15997 0 0 -8.15997 165.615 477.717)"/><use xlink:href="#D" transform="matrix(8.15997 0 0 -8.15997 169.369 477.717)"/><use xlink:href="#y" transform="matrix(8.15997 0 0 -8.15997 173.449 477.717)"/><use xlink:href="#S" transform="matrix(8.15997 0 0 -8.15997 177.202 479.295)"/><use xlink:href="#b" transform="matrix(8.15997 0 0 -8.15997 180.793 477.717)"/><path d="m230.88 500.04 2.16 1.44-2.52-.6z" fill-rule="evenodd"/><path stroke-width=".72" stroke-linecap="round" stroke-linejoin="round" fill="none" stroke="#000" d="m230.64 500.4-47.28-21.12h-40.8"/><use xlink:href="#ac" transform="matrix(8.15997 0 0 -8.15997 157.247 495.48)"/><use xlink:href="#p" transform="matrix(8.15997 0 0 -8.15997 161.408 495.48)"/><use xlink:href="#O" transform="matrix(8.15997 0 0 -8.15997 165.08 495.48)"/><use xlink:href="#o" transform="matrix(8.15997 0 0 -8.15997 168.752 495.48)"/><use xlink:href="#t" transform="matrix(8.15997 0 0 -8.15997 172.343 495.48)"/><use xlink:href="#r" transform="matrix(8.15997 0 0 -8.15997 177.157 497.058)"/><use xlink:href="#y" transform="matrix(8.15997 0 0 -8.15997 180.747 495.48)"/><path d="m230.64 508.92 2.4 1.08-2.64-.24z" fill-rule="evenodd"/><path stroke-width=".72" stroke-linecap="round" stroke-linejoin="round" fill="none" stroke="#000" d="m230.52 509.28-47.16-12.12H157.2"/><symbol id="ah"><path d="M.193.215.06.015A.03.03 0 0 0 .032 0 .032.032 0 0 0 .01.01.032.032 0 0 0 0 .031C0 .04.002.045.005.05l.118.176L.005.4A.031.031 0 0 0 0 .419C0 .44.01.45.032.45A.03.03 0 0 0 .06.437L.193.236v.183C.193.44.204.45.226.45.247.451.258.441.258.42V.236l.134.201A.03.03 0 0 0 .42.451C.44.451.45.441.45.42A.031.031 0 0 0 .446.4L.328.226.446.05A.031.031 0 0 0 .45.032C.451.011.441 0 .42 0a.03.03 0 0 0-.027.014L.258.215V.032C.258.011.248 0 .226 0S.193.01.193.032v.183z"/></symbol><symbol id="ai"><path d="M0 .032v.58c0 .022.01.033.032.033H.29C.312.645.322.634.322.612.322.591.312.58.29.58H.064V.387H.29C.312.387.322.376.322.354.322.333.312.322.29.322H.064v-.29C.064.011.054 0 .032 0 .011 0 0 .01 0 .032z"/></symbol><symbol id="aj"><path d="M0 .419C0 .44.01.45.032.45S.064.441.064.42V.032C.064.011.054 0 .032 0 .011 0 0 .01 0 .032V.42M0 .58v.032c0 .022.01.033.032.033S.064.634.064.612V.58C.064.56.054.548.032.548.011.548 0 .558 0 .58z"/></symbol><symbol id="ak"><path d="M.2.226.317.05A.033.033 0 0 0 .322.032C.322.011.312 0 .29 0a.03.03 0 0 0-.027.014L.161.167.06.014A.03.03 0 0 0 .032 0 .032.032 0 0 0 .01.01.032.032 0 0 0 0 .031C0 .04.002.045.005.05l.117.176L.005.4A.033.033 0 0 0 0 .419C0 .44.01.45.032.45A.03.03 0 0 0 .06.437L.161.284l.102.153A.03.03 0 0 0 .29.451C.312.451.322.441.322.42A.033.033 0 0 0 .317.401L.2.226z"/></symbol><use xlink:href="#x" transform="matrix(8.15997 0 0 -8.15997 179.085 512.88)"/><use xlink:href="#t" transform="matrix(8.15997 0 0 -8.15997 182.839 512.88)"/><use xlink:href="#r" transform="matrix(8.15997 0 0 -8.15997 187.49 514.457)"/><use xlink:href="#o" transform="matrix(8.15997 0 0 -8.15997 191.243 512.88)"/><use xlink:href="#ah" transform="matrix(8.15997 0 0 -8.15997 194.834 512.88)"/><use xlink:href="#b" transform="matrix(8.15997 0 0 -8.15997 199.567 512.88)"/><use xlink:href="#q" transform="matrix(8.15997 0 0 -8.15997 203.239 512.88)"/><use xlink:href="#u" transform="matrix(8.15997 0 0 -8.15997 206.793 512.88)"/><use xlink:href="#ai" transform="matrix(8.15997 0 0 -8.15997 210.5 512.88)"/><use xlink:href="#aj" transform="matrix(8.15997 0 0 -8.15997 214.255 512.88)"/><use xlink:href="#ak" transform="matrix(8.15997 0 0 -8.15997 215.805 512.88)"/><path d="m231.96 532.68 1.08 2.4-1.8-1.8z" fill-rule="evenodd"/><path stroke-width=".72" stroke-linecap="round" stroke-linejoin="round" fill="none" stroke="#000" d="m231.6 533.04-13.2-18.6h-39.24"/><use xlink:href="#A" transform="matrix(8.15997 0 0 -8.15997 109.845 525.84)"/><use xlink:href="#y" transform="matrix(8.15997 0 0 -8.15997 114.006 525.84)"/><use xlink:href="#D" transform="matrix(8.15997 0 0 -8.15997 117.76 525.84)"/><use xlink:href="#o" transform="matrix(8.15997 0 0 -8.15997 122.003 525.84)"/><use xlink:href="#G" transform="matrix(8.15997 0 0 -8.15997 125.675 525.84)"/><use xlink:href="#G" transform="matrix(8.15997 0 0 -8.15997 128.94 525.84)"/><use xlink:href="#o" transform="matrix(8.15997 0 0 -8.15997 132.203 525.84)"/><use xlink:href="#y" transform="matrix(8.15997 0 0 -8.15997 135.875 525.84)"/><use xlink:href="#p" transform="matrix(8.15997 0 0 -8.15997 139.629 525.84)"/><use xlink:href="#p" transform="matrix(8.15997 0 0 -8.15997 143.3 525.84)"/><use xlink:href="#I" transform="matrix(8.15997 0 0 -8.15997 147.054 525.84)"/><use xlink:href="#Y" transform="matrix(8.15997 0 0 -8.15997 151.216 525.84)"/><use xlink:href="#u" transform="matrix(8.15997 0 0 -8.15997 154.28 525.84)"/><use xlink:href="#D" transform="matrix(8.15997 0 0 -8.15997 157.989 525.84)"/><use xlink:href="#q" transform="matrix(8.15997 0 0 -8.15997 162.069 525.84)"/><use xlink:href="#Z" transform="matrix(8.15997 0 0 -8.15997 166.149 525.84)"/><use xlink:href="#q" transform="matrix(8.15997 0 0 -8.15997 169.739 525.84)"/><use xlink:href="#H" transform="matrix(8.15997 0 0 -8.15997 173.819 525.84)"/><use xlink:href="#o" transform="matrix(8.15997 0 0 -8.15997 177.165 525.84)"/><use xlink:href="#p" transform="matrix(8.15997 0 0 -8.15997 180.755 525.84)"/><path d="m230.88 547.8 2.16 1.44-2.52-.72z" fill-rule="evenodd"/><path stroke-width=".72" stroke-linecap="round" stroke-linejoin="round" fill="none" stroke="#000" d="m230.64 548.16-47.28-21.24h-73.44"/><use xlink:href="#J" transform="matrix(8.15997 0 0 -8.15997 129.045 538.678)"/><use xlink:href="#o" transform="matrix(8.15997 0 0 -8.15997 134.35 538.678)"/><use xlink:href="#q" transform="matrix(8.15997 0 0 -8.15997 138.021 538.678)"/><use xlink:href="#p" transform="matrix(8.15997 0 0 -8.15997 142.265 538.678)"/><use xlink:href="#o" transform="matrix(8.15997 0 0 -8.15997 145.937 538.678)"/><use xlink:href="#t" transform="matrix(8.15997 0 0 -8.15997 149.69 538.678)"/><use xlink:href="#u" transform="matrix(8.15997 0 0 -8.15997 153.979 538.678)"/><use xlink:href="#C" transform="matrix(8.15997 0 0 -8.15997 157.687 538.678)"/><use xlink:href="#y" transform="matrix(8.15997 0 0 -8.15997 161.93 538.678)"/><use xlink:href="#D" transform="matrix(8.15997 0 0 -8.15997 165.52 538.678)"/><use xlink:href="#U" transform="matrix(8.15997 0 0 -8.15997 169.6 538.678)"/><use xlink:href="#q" transform="matrix(8.15997 0 0 -8.15997 173.19 538.678)"/><use xlink:href="#r" transform="matrix(8.15997 0 0 -8.15997 177.27 540.256)"/><use xlink:href="#E" transform="matrix(8.15997 0 0 -8.15997 180.861 538.678)"/><path d="m230.88 561.6 2.16 1.56-2.52-.72z" fill-rule="evenodd"/><path stroke-width=".72" stroke-linecap="round" stroke-linejoin="round" fill="none" stroke="#000" d="m230.64 561.96-47.28-21.72H129"/><use xlink:href="#aa" transform="matrix(8.15997 0 0 -8.15997 160.367 556.316)"/><use xlink:href="#w" transform="matrix(8.15997 0 0 -8.15997 164.528 556.316)"/><use xlink:href="#t" transform="matrix(8.15997 0 0 -8.15997 168.282 556.316)"/><use xlink:href="#o" transform="matrix(8.15997 0 0 -8.15997 173.096 556.316)"/><use xlink:href="#b" transform="matrix(8.15997 0 0 -8.15997 176.686 556.316)"/><use xlink:href="#q" transform="matrix(8.15997 0 0 -8.15997 180.277 556.316)"/><symbol id="al"><path d="M.032.645h.161c.054 0 .1-.02.137-.057A.185.185 0 0 0 .387.45a.189.189 0 0 0-.054-.14.189.189 0 0 0-.14-.053H.064V.032C.064.011.054 0 .032 0 .011 0 0 .01 0 .032v.58c0 .022.01.033.032.033M.064.58V.322h.13c.035 0 .066.013.09.037a.125.125 0 0 1 .038.092.123.123 0 0 1-.037.091.123.123 0 0 1-.092.038H.064z"/></symbol><symbol id="am"><path d="M.161.387A.093.093 0 0 1 .093.358.093.093 0 0 1 .064.29V.258h.194V.29c0 .027-.01.05-.029.068a.093.093 0 0 1-.068.029M.064.193V.13c0-.018.007-.033.02-.046A.062.062 0 0 1 .128.064H.29c.022 0 .032-.01.032-.032C.322.011.312 0 .29 0H.129a.126.126 0 0 0-.092.037A.126.126 0 0 0 0 .13V.29c0 .045.016.083.047.114S.117.45.16.45A.154.154 0 0 0 .275.404.154.154 0 0 0 .322.29V.193H.064z"/></symbol><symbol id="an"><path d="M0 .322c0 .024.006.045.017.065A.12.12 0 0 0 .13.451h.129v.161c0 .022.01.033.032.033S.322.634.322.612v-.58C.322.011.312 0 .29 0H.129a.126.126 0 0 0-.092.037A.126.126 0 0 0 0 .13v.193m.129.065a.063.063 0 0 1-.046-.02.062.062 0 0 1-.019-.045V.13c0-.018.007-.033.02-.046A.062.062 0 0 1 .128.064h.129v.323h-.13z"/></symbol><symbol id="ao"><path d="M.129 0a.126.126 0 0 0-.092.037A.126.126 0 0 0 0 .13c0 .023.006.045.017.065A.12.12 0 0 0 .13.258h.129v.064a.062.062 0 0 1-.019.046.062.062 0 0 1-.046.019H.064c-.021 0-.032.01-.032.032C.032.44.043.45.064.45h.13a.123.123 0 0 0 .09-.037.123.123 0 0 0 .038-.092v-.29C.322.011.312 0 .29 0H.129m.129.193h-.13A.063.063 0 0 1 .084.174.062.062 0 0 1 .064.13c0-.018.007-.033.02-.046A.062.062 0 0 1 .128.064h.129v.13z"/></symbol><symbol id="ap"><path d="M0 .032V.42C0 .44.01.45.032.45h.161A.123.123 0 0 0 .285.414.123.123 0 0 0 .322.322v-.29C.322.011.312 0 .29 0 .269 0 .258.01.258.032v.29a.062.062 0 0 1-.019.046.062.062 0 0 1-.046.019H.064V.032C.064.011.054 0 .032 0 .011 0 0 .01 0 .032z"/></symbol><symbol id="aq"><path d="M.064.387H.032C.011.387 0 .397 0 .419 0 .44.01.45.032.45h.032v.161c0 .022.011.033.033.033.021 0 .032-.011.032-.033v-.16h.097C.247.451.258.44.258.418.258.397.248.387.226.387H.129V.032C.129.011.119 0 .097 0S.064.01.064.032v.355z"/></symbol><use xlink:href="#al" transform="matrix(8.15997 0 0 -8.15997 162.526 565.077)"/><use xlink:href="#am" transform="matrix(8.15997 0 0 -8.15997 166.688 565.077)"/><use xlink:href="#an" transform="matrix(8.15997 0 0 -8.15997 170.441 565.077)"/><use xlink:href="#ao" transform="matrix(8.15997 0 0 -8.15997 174.195 565.077)"/><use xlink:href="#ap" transform="matrix(8.15997 0 0 -8.15997 177.785 565.077)"/><use xlink:href="#aq" transform="matrix(8.15997 0 0 -8.15997 181.376 565.077)"/><path d="m230.76 575.52 2.28 1.32-2.52-.48z" fill-rule="evenodd"/><path stroke-width=".72" stroke-linecap="round" stroke-linejoin="round" fill="none" stroke="#000" d="m230.64 575.88-47.28-18.48h-22.92"/><symbol id="ar"><path d="M.387.032C.387.011.376 0 .354 0 .333 0 .322.01.322.032v.226h-.16a.155.155 0 0 0-.115.047A.157.157 0 0 0 0 .419v.193c0 .022.01.033.032.033S.064.634.064.612V.42c0-.027.01-.05.029-.068A.093.093 0 0 1 .16.322h.161v.29c0 .022.011.033.032.033.022 0 .033-.011.033-.033v-.58z"/></symbol><use xlink:href="#n" transform="matrix(8.15997 0 0 -8.15997 180.886 596.758)"/><use xlink:href="#y" transform="matrix(8.15997 0 0 -8.15997 185.7 596.758)"/><use xlink:href="#r" transform="matrix(8.15997 0 0 -8.15997 189.372 598.335)"/><use xlink:href="#s" transform="matrix(8.15997 0 0 -8.15997 193.126 596.758)"/><use xlink:href="#u" transform="matrix(8.15997 0 0 -8.15997 196.354 596.758)"/><use xlink:href="#ar" transform="matrix(8.15997 0 0 -8.15997 199.98 596.758)"/><use xlink:href="#q" transform="matrix(8.15997 0 0 -8.15997 204.06 596.758)"/><use xlink:href="#N" transform="matrix(8.15997 0 0 -8.15997 208.14 596.758)"/><path d="m230.64 584.52 2.4-1.2-1.92 1.92z" fill-rule="evenodd"/><path stroke-width=".72" stroke-linecap="round" stroke-linejoin="round" fill="none" stroke="#000" d="m230.88 584.88-20.16 13.44h-29.76"/><symbol id="as"><path d="M.161.193H.064v-.16C.064.01.054 0 .032 0 .011 0 0 .01 0 .032V.42C0 .44.01.45.032.45S.064.441.064.42V.258h.097v.064c0 .036.013.067.037.092A.125.125 0 0 0 .29.45.123.123 0 0 0 .381.414.123.123 0 0 0 .42.322V.13A.125.125 0 0 0 .38.037.124.124 0 0 0 .29 0a.126.126 0 0 0-.092.037.126.126 0 0 0-.037.092v.064M.29.064c.017 0 .032.007.045.02.013.013.02.028.02.045v.193a.062.062 0 0 1-.02.046.062.062 0 0 1-.045.019.063.063 0 0 1-.046-.02.062.062 0 0 1-.018-.045V.13c0-.017.006-.032.02-.045A.062.062 0 0 1 .29.064z"/></symbol><use xlink:href="#A" transform="matrix(8.15997 0 0 -8.15997 161.327 612.6)"/><use xlink:href="#a" transform="matrix(8.15997 0 0 -8.15997 165.488 612.6)"/><use xlink:href="#as" transform="matrix(8.15997 0 0 -8.15997 169.242 612.6)"/><use xlink:href="#z" transform="matrix(8.15997 0 0 -8.15997 173.811 612.6)"/><use xlink:href="#o" transform="matrix(8.15997 0 0 -8.15997 177.565 612.6)"/><use xlink:href="#K" transform="matrix(8.15997 0 0 -8.15997 181.237 612.074)"/><use xlink:href="#C" transform="matrix(8.15997 0 0 -8.15997 184.99 612.6)"/><use xlink:href="#y" transform="matrix(8.15997 0 0 -8.15997 189.152 612.6)"/><use xlink:href="#D" transform="matrix(8.15997 0 0 -8.15997 192.743 612.6)"/><use xlink:href="#U" transform="matrix(8.15997 0 0 -8.15997 196.823 612.6)"/><use xlink:href="#q" transform="matrix(8.15997 0 0 -8.15997 200.413 612.6)"/><use xlink:href="#r" transform="matrix(8.15997 0 0 -8.15997 204.493 614.178)"/><use xlink:href="#E" transform="matrix(8.15997 0 0 -8.15997 208.165 612.6)"/><symbol id="at"><path d="M.226 0C.21 0 .199.008.194.025L0 .602A.032.032 0 0 0 0 .612c0 .022.01.033.032.033.016 0 .026-.008.031-.022L.226.135l.162.488c.005.014.015.022.03.022C.44.645.452.634.452.612L.45.602.257.025C.252.008.241 0 .226 0z"/></symbol><symbol id="au"><path d="M0 .612c0 .022.01.033.032.033h.161A.123.123 0 0 0 .285.607.123.123 0 0 0 .322.516V.322A.124.124 0 0 0 .285.231.123.123 0 0 0 .193.193H.064v-.16C.064.01.054 0 .032 0 .011 0 0 .01 0 .032v.58M.064.58V.258h.13c.017 0 .032.006.045.018a.063.063 0 0 1 .019.046v.194a.062.062 0 0 1-.019.046.062.062 0 0 1-.046.018H.064z"/></symbol><symbol id="av"><path d="M.29.645C.312.645.322.634.322.612.322.591.312.58.29.58H.161A.094.094 0 0 1 .092.552.094.094 0 0 1 .064.483V.161c0-.027.01-.05.029-.068A.093.093 0 0 1 .16.064H.29c.022 0 .032-.01.032-.032C.322.011.312 0 .29 0H.161a.157.157 0 0 0-.114.047A.157.157 0 0 0 0 .16v.322c0 .045.016.083.047.114.031.032.07.048.114.048H.29z"/></symbol><symbol id="aw"><path d="M0 .612c0 .022.01.033.032.033S.064.634.064.612V.097C.064.08.075.069.097.064.118.06.129.05.129.032.129.011.119 0 .097 0a.098.098 0 0 0-.07.025A.095.095 0 0 0 0 .097v.515z"/></symbol><symbol id="ax"><path d="M.322.419V.032C.322.011.312 0 .29 0H.129a.126.126 0 0 0-.092.037A.126.126 0 0 0 0 .13v.29C0 .44.01.45.032.45S.064.441.064.42v-.29c0-.018.007-.033.02-.046A.062.062 0 0 1 .128.064h.129V.42C.258.44.268.45.29.45S.322.441.322.42z"/></symbol><symbol id="ay"><path d="M.322.322V.13A.125.125 0 0 0 .285.037.124.124 0 0 0 .193 0h-.16C.01 0 0 .01 0 .032v.58c0 .022.01.033.032.033S.064.634.064.612v-.16h.13A.12.12 0 0 0 .304.386.128.128 0 0 0 .322.322M.193.387H.064V.064h.13c.017 0 .032.007.045.019a.063.063 0 0 1 .019.046v.193a.062.062 0 0 1-.019.046.062.062 0 0 1-.046.019z"/></symbol><use xlink:href="#at" transform="matrix(8.15997 0 0 -8.15997 179.926 621.356)"/><use xlink:href="#ao" transform="matrix(8.15997 0 0 -8.15997 184.74 621.356)"/><use xlink:href="#au" transform="matrix(8.15997 0 0 -8.15997 188.33 622.934)"/><use xlink:href="#am" transform="matrix(8.15997 0 0 -8.15997 192.084 621.356)"/><use xlink:href="#u" transform="matrix(8.15997 0 0 -8.15997 195.149 621.356)"/><use xlink:href="#av" transform="matrix(8.15997 0 0 -8.15997 198.857 621.356)"/><use xlink:href="#aw" transform="matrix(8.15997 0 0 -8.15997 202.447 621.356)"/><use xlink:href="#ax" transform="matrix(8.15997 0 0 -8.15997 204.487 621.356)"/><use xlink:href="#ay" transform="matrix(8.15997 0 0 -8.15997 208.16 621.356)"/><path d="m230.4 608.76 2.64-.24-2.4 1.08z" fill-rule="evenodd"/><path stroke-width=".72" stroke-linecap="round" stroke-linejoin="round" fill="none" stroke="#000" d="m230.52 609.24-19.8 4.92h-49.44"/><use xlink:href="#x" transform="matrix(8.15997 0 0 -8.15997 137.684 631.197)"/><use xlink:href="#t" transform="matrix(8.15997 0 0 -8.15997 141.437 631.197)"/><use xlink:href="#y" transform="matrix(8.15997 0 0 -8.15997 146.17 631.197)"/><use xlink:href="#D" transform="matrix(8.15997 0 0 -8.15997 149.923 631.197)"/><use xlink:href="#q" transform="matrix(8.15997 0 0 -8.15997 154.167 631.197)"/><use xlink:href="#t" transform="matrix(8.15997 0 0 -8.15997 158.328 631.197)"/><use xlink:href="#y" transform="matrix(8.15997 0 0 -8.15997 163.143 631.197)"/><use xlink:href="#a" transform="matrix(8.15997 0 0 -8.15997 166.733 631.197)"/><use xlink:href="#y" transform="matrix(8.15997 0 0 -8.15997 170.323 631.197)"/><use xlink:href="#Z" transform="matrix(8.15997 0 0 -8.15997 173.914 631.197)"/><use xlink:href="#o" transform="matrix(8.15997 0 0 -8.15997 177.504 631.197)"/><use xlink:href="#N" transform="matrix(8.15997 0 0 -8.15997 181.095 631.197)"/><path d="m230.4 617.76 2.64-.36-2.4 1.2z" fill-rule="evenodd"/><path stroke-width=".72" stroke-linecap="round" stroke-linejoin="round" fill="none" stroke="#000" d="m230.52 618.24-46.8 13.92h-46.08"/><use xlink:href="#B" transform="matrix(8.15997 0 0 -8.15997 195.285 644.109)"/><use xlink:href="#ah" transform="matrix(8.15997 0 0 -8.15997 200.1 643.32)"/><use xlink:href="#o" transform="matrix(8.15997 0 0 -8.15997 204.751 643.32)"/><use xlink:href="#p" transform="matrix(8.15997 0 0 -8.15997 208.505 643.32)"/><use xlink:href="#G" transform="matrix(8.15997 0 0 -8.15997 212.095 643.32)"/><use xlink:href="#I" transform="matrix(8.15997 0 0 -8.15997 215.196 643.32)"/><use xlink:href="#W" transform="matrix(8.15997 0 0 -8.15997 157.127 651.956)"/><use xlink:href="#s" transform="matrix(8.15997 0 0 -8.15997 161.289 651.956)"/><use xlink:href="#D" transform="matrix(8.15997 0 0 -8.15997 164.96 651.956)"/><use xlink:href="#y" transform="matrix(8.15997 0 0 -8.15997 169.122 651.956)"/><use xlink:href="#p" transform="matrix(8.15997 0 0 -8.15997 172.713 651.956)"/><use xlink:href="#t" transform="matrix(8.15997 0 0 -8.15997 176.466 651.956)"/><use xlink:href="#u" transform="matrix(8.15997 0 0 -8.15997 180.592 651.956)"/><use xlink:href="#t" transform="matrix(8.15997 0 0 -8.15997 184.382 651.956)"/><use xlink:href="#s" transform="matrix(8.15997 0 0 -8.15997 189.033 651.956)"/><use xlink:href="#a" transform="matrix(8.15997 0 0 -8.15997 192.786 651.956)"/><use xlink:href="#s" transform="matrix(8.15997 0 0 -8.15997 196.377 651.956)"/><use xlink:href="#X" transform="matrix(8.15997 0 0 -8.15997 200.049 653.534)"/><use xlink:href="#y" transform="matrix(8.15997 0 0 -8.15997 204.781 651.956)"/><use xlink:href="#p" transform="matrix(8.15997 0 0 -8.15997 208.453 651.956)"/><use xlink:href="#y" transform="matrix(8.15997 0 0 -8.15997 212.044 651.956)"/><use xlink:href="#O" transform="matrix(8.15997 0 0 -8.15997 215.716 651.956)"/><path d="m231.96 663.12 1.08 2.4-1.8-1.8z" fill-rule="evenodd"/><path stroke-width=".72" stroke-linecap="round" stroke-linejoin="round" fill="none" stroke="#000" d="m231.6 663.36-13.2-18.48h-61.32"/><use xlink:href="#C" transform="matrix(8.15997 0 0 -8.15997 152.446 672.356)"/><use xlink:href="#y" transform="matrix(8.15997 0 0 -8.15997 156.607 672.356)"/><use xlink:href="#D" transform="matrix(8.15997 0 0 -8.15997 160.36 672.356)"/><use xlink:href="#U" transform="matrix(8.15997 0 0 -8.15997 164.604 672.356)"/><use xlink:href="#q" transform="matrix(8.15997 0 0 -8.15997 168.276 672.356)"/><use xlink:href="#r" transform="matrix(8.15997 0 0 -8.15997 172.52 673.934)"/><use xlink:href="#E" transform="matrix(8.15997 0 0 -8.15997 176.191 672.356)"/><use xlink:href="#u" transform="matrix(8.15997 0 0 -8.15997 179.419 672.356)"/><use xlink:href="#w" transform="matrix(8.15997 0 0 -8.15997 183.127 672.356)"/><use xlink:href="#r" transform="matrix(8.15997 0 0 -8.15997 186.88 673.934)"/><use xlink:href="#y" transform="matrix(8.15997 0 0 -8.15997 190.471 672.356)"/><use xlink:href="#G" transform="matrix(8.15997 0 0 -8.15997 194.061 672.356)"/><use xlink:href="#t" transform="matrix(8.15997 0 0 -8.15997 197.244 672.356)"/><use xlink:href="#y" transform="matrix(8.15997 0 0 -8.15997 201.895 672.356)"/><use xlink:href="#u" transform="matrix(8.15997 0 0 -8.15997 204.96 672.356)"/><use xlink:href="#j" transform="matrix(8.15997 0 0 -8.15997 208.586 672.356)"/><use xlink:href="#g" transform="matrix(8.15997 0 0 -8.15997 212.177 672.356)"/><use xlink:href="#j" transform="matrix(8.15997 0 0 -8.15997 215.767 672.356)"/><path d="m231.96 692.16 1.08 2.4-1.8-1.8z" fill-rule="evenodd"/><path stroke-width=".72" stroke-linecap="round" stroke-linejoin="round" fill="none" stroke="#000" d="m231.6 692.4-13.2-18.48h-66"/><symbol id="az"><path d="M.322.129A.125.125 0 0 0 .285.037.124.124 0 0 0 .193 0h-.16C.01 0 0 .01 0 .032V.42C0 .44.01.45.032.45S.064.441.064.42V.258h.13A.123.123 0 0 0 .283.22.124.124 0 0 0 .323.13m-.064 0a.062.062 0 0 1-.019.046.062.062 0 0 1-.046.018H.064V.064h.13c.017 0 .032.007.045.019a.063.063 0 0 1 .019.046z"/></symbol><use xlink:href="#v" transform="matrix(8.15997 0 0 -8.15997 103.004 729.357)"/><use xlink:href="#w" transform="matrix(8.15997 0 0 -8.15997 107.818 729.357)"/><use xlink:href="#t" transform="matrix(8.15997 0 0 -8.15997 111.408 729.357)"/><use xlink:href="#s" transform="matrix(8.15997 0 0 -8.15997 116.223 729.357)"/><use xlink:href="#b" transform="matrix(8.15997 0 0 -8.15997 119.813 729.357)"/><use xlink:href="#q" transform="matrix(8.15997 0 0 -8.15997 123.567 729.357)"/><use xlink:href="#u" transform="matrix(8.15997 0 0 -8.15997 127.12 729.357)"/><use xlink:href="#w" transform="matrix(8.15997 0 0 -8.15997 130.83 729.357)"/><use xlink:href="#a" transform="matrix(8.15997 0 0 -8.15997 134.42 729.357)"/><use xlink:href="#q" transform="matrix(8.15997 0 0 -8.15997 138.173 729.357)"/><use xlink:href="#p" transform="matrix(8.15997 0 0 -8.15997 142.253 729.357)"/><use xlink:href="#s" transform="matrix(8.15997 0 0 -8.15997 146.007 729.357)"/><use xlink:href="#t" transform="matrix(8.15997 0 0 -8.15997 149.597 729.357)"/><use xlink:href="#q" transform="matrix(8.15997 0 0 -8.15997 154.33 729.357)"/><use xlink:href="#u" transform="matrix(8.15997 0 0 -8.15997 157.884 729.357)"/><use xlink:href="#H" transform="matrix(8.15997 0 0 -8.15997 161.674 729.357)"/><use xlink:href="#E" transform="matrix(8.15997 0 0 -8.15997 165.02 729.357)"/><use xlink:href="#y" transform="matrix(8.15997 0 0 -8.15997 168.773 729.357)"/><use xlink:href="#r" transform="matrix(8.15997 0 0 -8.15997 172.363 730.935)"/><use xlink:href="#y" transform="matrix(8.15997 0 0 -8.15997 176.117 729.357)"/><use xlink:href="#O" transform="matrix(8.15997 0 0 -8.15997 179.707 729.357)"/><use xlink:href="#az" transform="matrix(8.15997 0 0 -8.15997 183.38 729.357)"/><use xlink:href="#N" transform="matrix(8.15997 0 0 -8.15997 186.97 729.357)"/><use xlink:href="#u" transform="matrix(8.15997 0 0 -8.15997 190.197 729.357)"/><use xlink:href="#M" transform="matrix(8.15997 0 0 -8.15997 193.824 729.357)"/><use xlink:href="#y" transform="matrix(8.15997 0 0 -8.15997 197.578 729.357)"/><use xlink:href="#a" transform="matrix(8.15997 0 0 -8.15997 201.168 729.357)"/><use xlink:href="#E" transform="matrix(8.15997 0 0 -8.15997 204.922 729.357)"/><use xlink:href="#o" transform="matrix(8.15997 0 0 -8.15997 208.512 729.357)"/><use xlink:href="#p" transform="matrix(8.15997 0 0 -8.15997 212.184 729.357)"/><use xlink:href="#Z" transform="matrix(8.15997 0 0 -8.15997 215.774 729.357)"/><path d="m231.96 749.16 1.08 2.4-1.8-1.8z" fill-rule="evenodd"/><path stroke-width=".72" stroke-linecap="round" stroke-linejoin="round" fill="none" stroke="#000" d="m231.6 749.4-13.2-18.48H102.96"/><use xlink:href="#L" transform="matrix(8.15997 0 0 -8.15997 197.684 773.758)"/><use xlink:href="#q" transform="matrix(8.15997 0 0 -8.15997 201.846 773.758)"/><use xlink:href="#r" transform="matrix(8.15997 0 0 -8.15997 206.089 775.336)"/><use xlink:href="#o" transform="matrix(8.15997 0 0 -8.15997 209.842 773.758)"/><use xlink:href="#b" transform="matrix(8.15997 0 0 -8.15997 213.514 773.758)"/><use xlink:href="#D" transform="matrix(8.15997 0 0 -8.15997 217.268 773.758)"/><use xlink:href="#q" transform="matrix(8.15997 0 0 -8.15997 221.43 773.758)"/><use xlink:href="#M" transform="matrix(8.15997 0 0 -8.15997 225.673 773.758)"/><use xlink:href="#s" transform="matrix(8.15997 0 0 -8.15997 229.345 773.758)"/><use xlink:href="#r" transform="matrix(8.15997 0 0 -8.15997 232.935 775.336)"/><use xlink:href="#G" transform="matrix(8.15997 0 0 -8.15997 236.525 773.758)"/><use xlink:href="#b" transform="matrix(8.15997 0 0 -8.15997 239.708 773.758)"/><use xlink:href="#q" transform="matrix(8.15997 0 0 -8.15997 243.298 773.758)"/><use xlink:href="#N" transform="matrix(8.15997 0 0 -8.15997 247.378 773.758)"/><path d="m262.56 762.84 2.16-1.56-1.56 2.16z" fill-rule="evenodd"/><path stroke-width=".72" stroke-linecap="round" stroke-linejoin="round" fill="none" stroke="#000" d="m262.8 763.2-12.84 12.12h-52.32"/><use xlink:href="#aa" transform="matrix(8.15997 0 0 -8.15997 262.485 134.879)"/><use xlink:href="#H" transform="matrix(8.15997 0 0 -8.15997 266.647 134.879)"/><use xlink:href="#y" transform="matrix(8.15997 0 0 -8.15997 270.156 134.879)"/><use xlink:href="#p" transform="matrix(8.15997 0 0 -8.15997 273.746 134.879)"/><path d="m289.92 154.2 1.2 2.4-1.92-1.8z" fill-rule="evenodd"/><path stroke-width=".72" stroke-linecap="round" stroke-linejoin="round" fill="none" stroke="#000" d="m289.56 154.44-13.2-18.48h-13.92"/><symbol id="aA"><path d="M.419 0H.126a.123.123 0 0 0-.089.037.123.123 0 0 0-.037.09v.292C0 .44.01.45.032.45S.064.441.064.42v-.29c0-.018.007-.033.02-.046A.062.062 0 0 1 .128.064h.064V.42C.193.44.204.45.226.45.247.451.258.441.258.42V.064h.129V.42c0 .021.01.032.032.032C.44.451.45.441.45.42V.032C.451.011.441 0 .42 0z"/></symbol><use xlink:href="#v" transform="matrix(8.15997 0 0 -8.15997 161.327 354.117)"/><use xlink:href="#O" transform="matrix(8.15997 0 0 -8.15997 166.141 354.117)"/><use xlink:href="#t" transform="matrix(8.15997 0 0 -8.15997 169.731 354.117)"/><use xlink:href="#y" transform="matrix(8.15997 0 0 -8.15997 174.546 354.117)"/><use xlink:href="#aA" transform="matrix(8.15997 0 0 -8.15997 178.136 354.117)"/><use xlink:href="#b" transform="matrix(8.15997 0 0 -8.15997 182.95 354.117)"/><use xlink:href="#y" transform="matrix(8.15997 0 0 -8.15997 186.541 354.117)"/><use xlink:href="#a" transform="matrix(8.15997 0 0 -8.15997 190.213 354.117)"/><use xlink:href="#q" transform="matrix(8.15997 0 0 -8.15997 193.885 354.117)"/><use xlink:href="#K" transform="matrix(8.15997 0 0 -8.15997 198.047 353.591)"/><use xlink:href="#W" transform="matrix(8.15997 0 0 -8.15997 201.637 354.117)"/><use xlink:href="#s" transform="matrix(8.15997 0 0 -8.15997 205.88 354.117)"/><use xlink:href="#G" transform="matrix(8.15997 0 0 -8.15997 209.47 354.117)"/><use xlink:href="#G" transform="matrix(8.15997 0 0 -8.15997 212.571 354.117)"/><use xlink:href="#y" transform="matrix(8.15997 0 0 -8.15997 215.672 354.117)"/><symbol id="aB"><path d="M.064.21V.031C.064.011.054 0 .032 0 .011 0 0 .01 0 .032v.58c0 .022.01.033.032.033S.064.634.064.612V.291l.207.154A.031.031 0 0 0 .29.45C.312.451.322.441.322.42A.03.03 0 0 0 .31.393L.185.3.319.047A.031.031 0 0 0 .322.032.031.031 0 0 0 .312.01.03.03 0 0 0 .29 0a.03.03 0 0 0-.028.017L.132.26.064.21z"/></symbol><use xlink:href="#aa" transform="matrix(8.15997 0 0 -8.15997 184.846 362.88)"/><use xlink:href="#b" transform="matrix(8.15997 0 0 -8.15997 189.008 362.88)"/><use xlink:href="#p" transform="matrix(8.15997 0 0 -8.15997 192.68 362.88)"/><use xlink:href="#q" transform="matrix(8.15997 0 0 -8.15997 196.352 362.88)"/><use xlink:href="#u" transform="matrix(8.15997 0 0 -8.15997 199.906 362.88)"/><use xlink:href="#at" transform="matrix(8.15997 0 0 -8.15997 203.696 362.88)"/><use xlink:href="#am" transform="matrix(8.15997 0 0 -8.15997 208.51 362.88)"/><use xlink:href="#aB" transform="matrix(8.15997 0 0 -8.15997 212.1 362.88)"/><use xlink:href="#ao" transform="matrix(8.15997 0 0 -8.15997 215.691 362.88)"/><path d="m231.96 373.44 1.08 2.4-1.8-1.92z" fill-rule="evenodd"/><path stroke-width=".72" stroke-linecap="round" stroke-linejoin="round" fill="none" stroke="#000" d="m231.6 373.68-13.2-18.48h-57.12"/><use xlink:href="#x" transform="matrix(8.15997 0 0 -8.15997 205.605 113.16)"/><use xlink:href="#a" transform="matrix(8.15997 0 0 -8.15997 209.359 113.16)"/><use xlink:href="#S" transform="matrix(8.15997 0 0 -8.15997 213.03 114.738)"/><use xlink:href="#M" transform="matrix(8.15997 0 0 -8.15997 216.784 113.16)"/><use xlink:href="#y" transform="matrix(8.15997 0 0 -8.15997 220.456 113.16)"/><use xlink:href="#O" transform="matrix(8.15997 0 0 -8.15997 224.046 113.16)"/><use xlink:href="#I" transform="matrix(8.15997 0 0 -8.15997 227.718 113.16)"/><use xlink:href="#s" transform="matrix(8.15997 0 0 -8.15997 231.798 113.16)"/><use xlink:href="#q" transform="matrix(8.15997 0 0 -8.15997 202.963 121.921)"/><use xlink:href="#w" transform="matrix(8.15997 0 0 -8.15997 207.206 121.921)"/><use xlink:href="#w" transform="matrix(8.15997 0 0 -8.15997 210.878 121.921)"/><use xlink:href="#q" transform="matrix(8.15997 0 0 -8.15997 214.632 121.921)"/><use xlink:href="#r" transform="matrix(8.15997 0 0 -8.15997 218.794 123.5)"/><use xlink:href="#q" transform="matrix(8.15997 0 0 -8.15997 222.547 121.921)"/><use xlink:href="#t" transform="matrix(8.15997 0 0 -8.15997 226.627 121.921)"/><use xlink:href="#I" transform="matrix(8.15997 0 0 -8.15997 231.278 121.921)"/><path d="m254.04 161.28.6 2.52-1.44-2.16z" fill-rule="evenodd"/><path stroke-width=".72" stroke-linecap="round" stroke-linejoin="round" fill="none" stroke="#000" d="m253.68 161.4-19.32-46.68h-49.68"/><use xlink:href="#A" transform="matrix(8.15997 0 0 -8.15997 177.045 258)"/><use xlink:href="#S" transform="matrix(8.15997 0 0 -8.15997 181.207 259.578)"/><use xlink:href="#w" transform="matrix(8.15997 0 0 -8.15997 184.96 258)"/><use xlink:href="#q" transform="matrix(8.15997 0 0 -8.15997 188.714 258)"/><use xlink:href="#a" transform="matrix(8.15997 0 0 -8.15997 192.875 258)"/><use xlink:href="#az" transform="matrix(8.15997 0 0 -8.15997 196.629 258)"/><use xlink:href="#p" transform="matrix(8.15997 0 0 -8.15997 200.22 258)"/><use xlink:href="#o" transform="matrix(8.15997 0 0 -8.15997 203.81 258)"/><use xlink:href="#b" transform="matrix(8.15997 0 0 -8.15997 207.4 258)"/><use xlink:href="#o" transform="matrix(8.15997 0 0 -8.15997 210.99 258)"/><symbol id="aC"><path d="M.226.51.13.226h.19L.225.51M.45.032C.451.011.441 0 .42 0 .403 0 .393.007.389.022l-.047.14H.109L.063.021C.058.007.048 0 .033 0 .01 0 0 .01 0 .032l.001.01.192.577C.2.636.21.645.226.645.24.645.252.636.257.62L.45.042A.032.032 0 0 0 .45.032z"/></symbol><symbol id="aD"><path d="M0 .612c0 .022.01.033.032.033h.322C.376.645.387.634.387.612.387.591.376.58.354.58H.226V.032C.226.011.215 0 .193 0 .172 0 .161.01.161.032V.58H.032C.011.58 0 .59 0 .612z"/></symbol><symbol id="aE"><path d="M0 .161V.29c0 .045.016.083.047.114S.117.45.16.45A.154.154 0 0 0 .275.404.154.154 0 0 0 .322.29V.161A.156.156 0 0 0 .275.047.155.155 0 0 0 .16 0a.157.157 0 0 0-.114.047A.157.157 0 0 0 0 .16m.258 0V.29c0 .027-.01.05-.029.068a.093.093 0 0 1-.068.029.093.093 0 0 1-.068-.029A.093.093 0 0 1 .064.29V.161A.095.095 0 0 1 .161.064c.027 0 .05.01.068.029A.093.093 0 0 1 .258.16z"/></symbol><symbol id="aF"><path d="M0 .419C0 .44.01.45.032.45h.194C.247.451.258.441.258.42V.354C.258.333.248.322.226.322S.193.333.193.354v.033H.064V.032C.064.011.054 0 .032 0 .011 0 0 .01 0 .032V.42z"/></symbol><use xlink:href="#aC" transform="matrix(8.15997 0 0 -8.15997 184.364 266.76)"/><use xlink:href="#ap" transform="matrix(8.15997 0 0 -8.15997 189.179 266.76)"/><use xlink:href="#am" transform="matrix(8.15997 0 0 -8.15997 192.77 266.76)"/><use xlink:href="#ak" transform="matrix(8.15997 0 0 -8.15997 196.523 266.76)"/><use xlink:href="#aD" transform="matrix(8.15997 0 0 -8.15997 200.113 266.76)"/><use xlink:href="#aE" transform="matrix(8.15997 0 0 -8.15997 204.275 266.76)"/><use xlink:href="#ax" transform="matrix(8.15997 0 0 -8.15997 207.865 266.76)"/><use xlink:href="#aF" transform="matrix(8.15997 0 0 -8.15997 211.455 266.76)"/><path d="m235.68 299.4.84 2.52-1.56-2.16z" fill-rule="evenodd"/><path stroke-width=".72" stroke-linecap="round" stroke-linejoin="round" fill="none" stroke="#000" d="m235.32 299.52-21.72-40.44H177"/><use xlink:href="#x" transform="matrix(8.15997 0 0 -8.15997 174.646 328.677)"/><use xlink:href="#q" transform="matrix(8.15997 0 0 -8.15997 178.4 328.677)"/><use xlink:href="#a" transform="matrix(8.15997 0 0 -8.15997 182.48 328.677)"/><use xlink:href="#y" transform="matrix(8.15997 0 0 -8.15997 186.152 328.677)"/><use xlink:href="#p" transform="matrix(8.15997 0 0 -8.15997 189.742 328.677)"/><use xlink:href="#u" transform="matrix(8.15997 0 0 -8.15997 192.97 328.677)"/><use xlink:href="#x" transform="matrix(8.15997 0 0 -8.15997 196.597 328.677)"/><use xlink:href="#O" transform="matrix(8.15997 0 0 -8.15997 200.35 328.677)"/><use xlink:href="#N" transform="matrix(8.15997 0 0 -8.15997 203.94 328.677)"/><use xlink:href="#H" transform="matrix(8.15997 0 0 -8.15997 207.613 328.677)"/><use xlink:href="#o" transform="matrix(8.15997 0 0 -8.15997 211.04 328.677)"/><use xlink:href="#W" transform="matrix(8.15997 0 0 -8.15997 190.604 337.44)"/><use xlink:href="#s" transform="matrix(8.15997 0 0 -8.15997 194.765 337.44)"/><use xlink:href="#D" transform="matrix(8.15997 0 0 -8.15997 198.519 337.44)"/><use xlink:href="#y" transform="matrix(8.15997 0 0 -8.15997 202.762 337.44)"/><use xlink:href="#p" transform="matrix(8.15997 0 0 -8.15997 206.353 337.44)"/><use xlink:href="#t" transform="matrix(8.15997 0 0 -8.15997 209.943 337.44)"/><path d="m235.68 370.08.84 2.52-1.56-2.04z" fill-rule="evenodd"/><path stroke-width=".72" stroke-linecap="round" stroke-linejoin="round" fill="none" stroke="#000" d="m235.32 370.32-21.72-40.56h-39"/></svg>